<svg version="1.1" xmlns="http://www.w3.org/2000/svg" viewBox="0 0 814.533332824707 754" width="814.533332824707" height="754">
  <!-- svg-source:excalidraw -->
  
  <defs>
    <style class="style-fonts">
      @font-face {
        font-family: "Virgil";
        src: url("https://excalidraw.com/Virgil.woff2");
      }
      @font-face {
        font-family: "Cascadia";
        src: url("https://excalidraw.com/Cascadia.woff2");
      }
    </style>
  </defs>
  <rect x="0" y="0" width="814.533332824707" height="754" fill="#ffffff"></rect><g stroke-linecap="round" transform="translate(60 10) rotate(0 317.5 366.5)"><path d="M32 0 M32 0 C169.92 -1.5, 305.51 -1.88, 603 0 M32 0 C180.99 0.93, 330.15 0.93, 603 0 M603 0 C623.64 0.63, 636.55 12.15, 635 32 M603 0 C625.69 -0.39, 634.11 9.93, 635 32 M635 32 C634.55 239.62, 633.36 445.49, 635 701 M635 32 C636.71 234.14, 637.03 435.79, 635 701 M635 701 C636.21 724.17, 625.97 732.09, 603 733 M635 701 C635.47 721.74, 622.39 733.08, 603 733 M603 733 C435.04 733.08, 266.56 733.84, 32 733 M603 733 C483.38 734.53, 362.92 734.49, 32 733 M32 733 C11.48 732.27, -0.61 723.67, 0 701 M32 733 C12.53 734.79, 1.67 721.66, 0 701 M0 701 C0.08 536.01, 0.44 369.65, 0 32 M0 701 C-0.08 454.08, -0.09 207.11, 0 32 M0 32 C1.2 12, 9.26 1.78, 32 0 M0 32 C-1.04 10.41, 12.12 0.93, 32 0" stroke="#000000" stroke-width="1" fill="none"></path></g><g stroke-linecap="round" transform="translate(146 65) rotate(0 232.5 309.5)"><path d="M32 0 M32 0 C181.49 1.86, 331.17 1.87, 433 0 M32 0 C180.63 -1.29, 329.59 -1.36, 433 0 M433 0 C456.13 1.3, 466.2 12, 465 32 M433 0 C452.72 2.04, 463.96 10.41, 465 32 M465 32 C466.18 233.42, 466.6 434.65, 465 587 M465 32 C467.2 163.8, 466.93 295.38, 465 587 M465 587 C465.92 606.7, 453.12 617.41, 433 619 M465 587 C463.06 609.48, 452.42 616.85, 433 619 M433 619 C323.79 618.06, 212.32 617.01, 32 619 M433 619 C339.78 618.99, 247.74 618.71, 32 619 M32 619 C9.41 617.61, -1.38 608.85, 0 587 M32 619 C8.52 617.04, -0.78 608.76, 0 587 M0 587 C1.11 411.64, 0.6 237.04, 0 32 M0 587 C0.05 460.46, -0.05 334.37, 0 32 M0 32 C-0.44 10.92, 10.34 1.02, 32 0 M0 32 C1.8 12.26, 12.82 2.01, 32 0" stroke="#e67700" stroke-width="1" fill="none"></path></g><g stroke-linecap="round" transform="translate(72 19) rotate(0 307 40)"><path d="M20 0 M20 0 C179.99 1, 339.72 1.13, 594 0 M20 0 C242.64 0.88, 465.06 1.05, 594 0 M594 0 C609.21 -0.27, 612.84 6.11, 614 20 M594 0 C606.64 1.86, 612.53 7.33, 614 20 M614 20 C612.61 31.19, 612.35 40.76, 614 60 M614 20 C613.67 29.01, 613.33 39.14, 614 60 M614 60 C613.64 74.09, 605.71 80.06, 594 80 M614 60 C615.98 71.44, 606.29 80.36, 594 80 M594 80 C444.89 80.44, 296.92 80.99, 20 80 M594 80 C414.42 81.66, 234.06 81.76, 20 80 M20 80 C8.36 81.35, 0.18 74.23, 0 60 M20 80 C6.82 81.9, -1.56 73.59, 0 60 M0 60 C-1.7 51.21, 0.06 44.07, 0 20 M0 60 C-0.08 50.45, -0.47 43.42, 0 20 M0 20 C1.79 6.65, 7.9 -0.93, 20 0 M0 20 C0.72 4.92, 6.87 -1.97, 20 0" stroke="#000000" stroke-width="1" fill="none"></path></g><g stroke-linecap="round" transform="translate(98 42) rotate(0 100 20.5)"><path d="M10.25 0 M10.25 0 C69.64 1.66, 127.54 0.03, 189.75 0 M10.25 0 C78.76 2.35, 149.1 1.37, 189.75 0 M189.75 0 C197.81 -0.93, 200.62 1.9, 200 10.25 M189.75 0 C196.79 -1.97, 197.72 5.09, 200 10.25 M200 10.25 C198.58 16.24, 199.18 26.63, 200 30.75 M200 10.25 C200.05 16.04, 199.19 20.76, 200 30.75 M200 30.75 C201.24 36.84, 196.42 39.4, 189.75 41 M200 30.75 C198.97 37.79, 196.61 40.16, 189.75 41 M189.75 41 C127.66 40, 68.94 40.56, 10.25 41 M189.75 41 C131.24 42.11, 72.8 41.87, 10.25 41 M10.25 41 C3.4 42.32, 0.45 36.84, 0 30.75 M10.25 41 C4.32 39.7, -1.98 37.76, 0 30.75 M0 30.75 C1.06 21.11, -1.44 15.69, 0 10.25 M0 30.75 C-0.47 25.17, -0.84 18.58, 0 10.25 M0 10.25 C0.62 1.48, 3.84 -1.15, 10.25 0 M0 10.25 C-0.2 3.88, 3.24 -0.54, 10.25 0" stroke="#000000" stroke-width="1" fill="none"></path></g><g stroke-linecap="round" transform="translate(436 37) rotate(0 119.5 24.5)"><path d="M12.25 0 M12.25 0 C59.44 -0.81, 107.23 1.56, 226.75 0 M12.25 0 C70.75 0.51, 129.51 1.05, 226.75 0 M226.75 0 C236.24 -0.77, 238.84 2.71, 239 12.25 M226.75 0 C234.19 -0.02, 240.52 4.6, 239 12.25 M239 12.25 C237.38 18.84, 240.79 26.49, 239 36.75 M239 12.25 C238.5 20.16, 238.89 27.15, 239 36.75 M239 36.75 C238.7 43.88, 235.01 47.22, 226.75 49 M239 36.75 C236.88 45.63, 232.69 49.49, 226.75 49 M226.75 49 C174.58 48.97, 123.82 49.44, 12.25 49 M226.75 49 C164.81 46.8, 104.88 46.68, 12.25 49 M12.25 49 C5.29 50.23, -0.56 43.14, 0 36.75 M12.25 49 C4.62 47.85, -1.32 45.35, 0 36.75 M0 36.75 C0.09 27.21, 1.11 19.36, 0 12.25 M0 36.75 C0.69 30.35, -0.67 21.94, 0 12.25 M0 12.25 C1.2 6, 4.85 1.61, 12.25 0 M0 12.25 C2.29 2.9, 3.33 0.96, 12.25 0" stroke="#000000" stroke-width="1" fill="none"></path></g><g transform="translate(88 16) rotate(0 32.53333282470703 12.5)"><text x="0" y="0" font-family="Virgil, Segoe UI Emoji" font-size="20px" fill="#000000" text-anchor="start" style="white-space: pre;" direction="ltr" dominant-baseline="text-before-edge">header</text></g><g transform="translate(113 50) rotate(0 18.725000381469727 12.5)"><text x="0" y="0" font-family="Virgil, Segoe UI Emoji" font-size="20px" fill="#000000" text-anchor="start" style="white-space: pre;" direction="ltr" dominant-baseline="text-before-edge">logo</text></g><g transform="translate(448 34) rotate(0 47.38333511352539 12.5)"><text x="0" y="0" font-family="Virgil, Segoe UI Emoji" font-size="20px" fill="#000000" text-anchor="start" style="white-space: pre;" direction="ltr" dominant-baseline="text-before-edge">barre nav</text></g><g transform="translate(10 220) rotate(0 63.93333435058594 12.5)"><text x="0" y="0" font-family="Virgil, Segoe UI Emoji" font-size="20px" fill="#e67700" text-anchor="start" style="white-space: pre;" direction="ltr" dominant-baseline="text-before-edge">body- main -&gt;</text></g><g stroke-linecap="round" transform="translate(161 76) rotate(0 220.5 67)"><path d="M32 0 M32 0 C161.63 -0.07, 289.71 -1.13, 409 0 M32 0 C170.4 1.01, 308.05 0.71, 409 0 M409 0 C430.69 1.77, 441.37 11.52, 441 32 M409 0 C431.15 1.54, 442.96 12, 441 32 M441 32 C442.49 58.87, 443.1 86.7, 441 102 M441 32 C439.86 56.69, 440.56 80.16, 441 102 M441 102 C441.45 122.83, 429.02 133.99, 409 134 M441 102 C439.35 122.97, 431.46 135.82, 409 134 M409 134 C315.03 132.42, 218.98 132.37, 32 134 M409 134 C315.24 135.62, 220.66 135.65, 32 134 M32 134 C10.72 133.11, -0.98 125, 0 102 M32 134 C10.92 132.27, 0.62 124.73, 0 102 M0 102 C2.11 76.74, 0.86 51.18, 0 32 M0 102 C-1.32 78.81, -0.51 53.47, 0 32 M0 32 C1.68 11.85, 9.56 -1.71, 32 0 M0 32 C-2.28 9.77, 12.23 1.98, 32 0" stroke="#000000" stroke-width="1" fill="none"></path></g><g transform="translate(181 112) rotate(0 13.533333778381348 12.5)"><text x="0" y="0" font-family="Virgil, Segoe UI Emoji" font-size="20px" fill="#000000" text-anchor="start" style="white-space: pre;" direction="ltr" dominant-baseline="text-before-edge">img</text></g><g stroke-linecap="round" transform="translate(287 131) rotate(0 72 9)"><path d="M4.5 0 M4.5 0 C37.14 -2.51, 70 -1.58, 139.5 0 M4.5 0 C54.4 1.84, 104.43 0.32, 139.5 0 M139.5 0 C143.25 0.24, 144.85 3.14, 144 4.5 M139.5 0 C143.22 -0.39, 142.17 -0.56, 144 4.5 M144 4.5 C144.27 6.61, 143.55 10.14, 144 13.5 M144 4.5 C144.42 6.6, 144.08 8.9, 144 13.5 M144 13.5 C143.53 17.69, 140.78 18.35, 139.5 18 M144 13.5 C144.64 15.7, 143.12 16.88, 139.5 18 M139.5 18 C94.57 15.58, 55.18 16.94, 4.5 18 M139.5 18 C107.48 17.2, 75.02 18.6, 4.5 18 M4.5 18 C3.5 19.3, -0.85 17.18, 0 13.5 M4.5 18 C3.67 17.78, 2.06 16.67, 0 13.5 M0 13.5 C-0.34 9.85, 0.43 7.12, 0 4.5 M0 13.5 C0.18 9.97, -0.29 7.13, 0 4.5 M0 4.5 C0.34 2.58, 1.3 -1.35, 4.5 0 M0 4.5 C0.33 2.08, -0.39 -2.28, 4.5 0" stroke="#000000" stroke-width="1" fill="none"></path></g><g stroke-linecap="round" transform="translate(293 161) rotate(0 68 9.5)"><path d="M4.75 0 M4.75 0 C30.09 3.05, 58.07 -0.02, 131.25 0 M4.75 0 C49.52 -0.01, 96.44 0.26, 131.25 0 M131.25 0 C135.71 -0.85, 136.68 3.47, 136 4.75 M131.25 0 C134.19 2.06, 136.17 2.89, 136 4.75 M136 4.75 C135.49 8.67, 136 12.29, 136 14.25 M136 4.75 C135.93 7.18, 136.51 10.34, 136 14.25 M136 14.25 C137.08 17.21, 133.07 19.28, 131.25 19 M136 14.25 C136.58 15.53, 132.14 21.25, 131.25 19 M131.25 19 C100.81 18.35, 68.11 17.34, 4.75 19 M131.25 19 C93.57 19.76, 56.82 20.23, 4.75 19 M4.75 19 C0.89 19.59, 0.48 15.94, 0 14.25 M4.75 19 C2.57 17.39, 1.36 19.71, 0 14.25 M0 14.25 C-0.07 11.4, -0.13 9.49, 0 4.75 M0 14.25 C0.32 11.71, -0.06 9.38, 0 4.75 M0 4.75 C-1.71 3.19, 3.45 0.14, 4.75 0 M0 4.75 C2.03 0.1, 3.37 1.46, 4.75 0" stroke="#000000" stroke-width="1" fill="none"></path></g><g transform="translate(313 139) rotate(0 54.983333587646484 12.5)"><text x="0" y="0" font-family="Virgil, Segoe UI Emoji" font-size="20px" fill="#000000" text-anchor="start" style="white-space: pre;" direction="ltr" dominant-baseline="text-before-edge">txt-positon</text></g><g stroke-linecap="round" transform="translate(306 271) rotate(0 62.5 17.5)"><path d="M8.75 0 M8.75 0 C36.58 0.66, 65.21 0.21, 116.25 0 M8.75 0 C44.77 -0.62, 81.72 -1.66, 116.25 0 M116.25 0 C122.94 -1.4, 126.19 4.91, 125 8.75 M116.25 0 C120.79 2.28, 123.76 2.98, 125 8.75 M125 8.75 C124.65 12.05, 126.32 18.28, 125 26.25 M125 8.75 C124.21 15.15, 125.77 20.21, 125 26.25 M125 26.25 C126.77 30.79, 123.64 36.27, 116.25 35 M125 26.25 C124.71 30.45, 120.67 33.03, 116.25 35 M116.25 35 C82.69 34.58, 53.34 36.23, 8.75 35 M116.25 35 C84.18 35.76, 53.54 36.17, 8.75 35 M8.75 35 C3.81 35.41, -0.28 32.49, 0 26.25 M8.75 35 C1.64 33.79, 1.95 33.71, 0 26.25 M0 26.25 C-0.13 22.14, 0.71 19.47, 0 8.75 M0 26.25 C-0.13 19.08, -0.14 12.34, 0 8.75 M0 8.75 C1.95 1.57, 3.2 -1.68, 8.75 0 M0 8.75 C1.84 1.95, 2.35 2.09, 8.75 0" stroke="#000000" stroke-width="1" fill="none"></path></g><g transform="translate(351.78333282470703 276) rotate(0 16.71666717529297 12.5)"><text x="16.71666717529297" y="0" font-family="Virgil, Segoe UI Emoji" font-size="20px" fill="#000000" text-anchor="middle" style="white-space: pre;" direction="ltr" dominant-baseline="text-before-edge">h2?</text></g><g transform="translate(182 315) rotate(0 55.93333435058594 12.5)"><text x="0" y="0" font-family="Virgil, Segoe UI Emoji" font-size="20px" fill="#000000" text-anchor="start" style="white-space: pre;" direction="ltr" dominant-baseline="text-before-edge">prestations</text></g><g stroke-linecap="round" transform="translate(163 460) rotate(0 214.5 91.5)"><path d="M32 0 M32 0 C163.51 2.46, 294.22 0.29, 397 0 M32 0 C109.1 -0.96, 186.93 -1.28, 397 0 M397 0 C419.14 -1.87, 430.09 9.22, 429 32 M397 0 C419.6 1.2, 431.1 8.93, 429 32 M429 32 C429.19 57.05, 427.99 84.25, 429 151 M429 32 C427.71 78.78, 428.76 126.01, 429 151 M429 151 C428.73 171.69, 417.89 183.63, 397 183 M429 151 C428.46 170.6, 416.87 183.69, 397 183 M397 183 C306.18 182.87, 216.15 184.63, 32 183 M397 183 C310.51 183.33, 223.52 182.86, 32 183 M32 183 C8.71 184.21, -0.97 170.91, 0 151 M32 183 C10.11 181.9, -2.01 172.94, 0 151 M0 151 C1.42 118.1, -1.04 84.71, 0 32 M0 151 C-0.82 107.19, -0.87 62.53, 0 32 M0 32 C1.55 10.11, 12.37 -0.59, 32 0 M0 32 C-1.33 11.6, 9.48 1.45, 32 0" stroke="#000000" stroke-width="1" fill="none"></path></g><g transform="translate(195 496) rotate(0 62.15833282470703 12.5)"><text x="0" y="0" font-family="Virgil, Segoe UI Emoji" font-size="20px" fill="#000000" text-anchor="start" style="white-space: pre;" direction="ltr" dominant-baseline="text-before-edge">prestataires</text></g><g stroke-linecap="round" transform="translate(179 553) rotate(0 50.5 40)"><path d="M20 0 M20 0 C35.98 0.02, 50.84 0.63, 81 0 M20 0 C35.91 0.11, 51.94 0.52, 81 0 M81 0 C94.04 -1.22, 99.08 7.19, 101 20 M81 0 C92.38 1.53, 99.76 8.31, 101 20 M101 20 C99.72 34.47, 99.05 52.45, 101 60 M101 20 C101.22 32.54, 100.63 45.77, 101 60 M101 60 C99.79 71.78, 95.21 80.5, 81 80 M101 60 C101.65 74.58, 93.08 80.96, 81 80 M81 80 C60.8 80.55, 38.29 78.38, 20 80 M81 80 C59.77 80.37, 38.65 79.02, 20 80 M20 80 C8.47 81.15, -1.18 71.92, 0 60 M20 80 C7 79.86, -0.81 75.12, 0 60 M0 60 C-0.21 50.24, -0.04 37.45, 0 20 M0 60 C0.92 48.06, 0.53 37.95, 0 20 M0 20 C-0.75 6.44, 6.87 -0.49, 20 0 M0 20 C-1.47 4.56, 6.08 1.79, 20 0" stroke="#000000" stroke-width="1" fill="none"></path></g><g stroke-linecap="round" transform="translate(301 557) rotate(0 49.5 36.5)"><path d="M18.25 0 M18.25 0 C37.43 -1, 57.97 -1.29, 80.75 0 M18.25 0 C32.42 0.38, 45.49 0.26, 80.75 0 M80.75 0 C93.74 0.25, 98.17 6.7, 99 18.25 M80.75 0 C93.84 -1.24, 97.42 7.04, 99 18.25 M99 18.25 C99.92 30.93, 97.22 48.11, 99 54.75 M99 18.25 C98.93 31.24, 98.43 45.13, 99 54.75 M99 54.75 C98.49 67.21, 94.07 72.84, 80.75 73 M99 54.75 C100.42 66.94, 92.27 72.53, 80.75 73 M80.75 73 C65.89 73.72, 54.7 72.61, 18.25 73 M80.75 73 C62.07 71.93, 44.42 73.62, 18.25 73 M18.25 73 C4.53 74.96, -1.14 66, 0 54.75 M18.25 73 C7.61 71.82, -0.08 65.7, 0 54.75 M0 54.75 C0.73 43.33, 1.8 30.59, 0 18.25 M0 54.75 C-0.82 41.27, 0.6 26.63, 0 18.25 M0 18.25 C-0.48 4.75, 7.77 -1.18, 18.25 0 M0 18.25 C-0.83 7.37, 4.09 1.04, 18.25 0" stroke="#000000" stroke-width="1" fill="none"></path></g><g stroke-linecap="round" transform="translate(411 560) rotate(0 42.5 35.5)"><path d="M17.75 0 M17.75 0 C30.93 1.34, 48.69 -1.4, 67.25 0 M17.75 0 C33.38 0.29, 48.99 -0.46, 67.25 0 M67.25 0 C77.25 -0.51, 86.55 4.37, 85 17.75 M67.25 0 C81.34 -1.32, 83.95 7.44, 85 17.75 M85 17.75 C85.2 25.11, 84.28 35.86, 85 53.25 M85 17.75 C86.05 27.86, 84.45 37.78, 85 53.25 M85 53.25 C85.65 65.99, 78.05 70.52, 67.25 71 M85 53.25 C83.47 67.03, 77.72 70.17, 67.25 71 M67.25 71 C48.42 71.24, 33.29 72.99, 17.75 71 M67.25 71 C56.91 71.18, 45.03 70.97, 17.75 71 M17.75 71 C7.5 69.71, -0.55 64.39, 0 53.25 M17.75 71 C5.06 72.06, 1.01 65.3, 0 53.25 M0 53.25 C0.64 41.99, 1.15 26.29, 0 17.75 M0 53.25 C0.74 42.25, -0.19 31.36, 0 17.75 M0 17.75 C0.12 5.36, 7.37 0.9, 17.75 0 M0 17.75 C-0.79 5.15, 7.99 -0.3, 17.75 0" stroke="#000000" stroke-width="1" fill="none"></path></g><g stroke-linecap="round" transform="translate(514 556) rotate(0 35.5 38)"><path d="M17.75 0 M17.75 0 C27.73 1.29, 39.93 -1.91, 53.25 0 M17.75 0 C24.47 -0.4, 31.56 0.68, 53.25 0 M53.25 0 C63.9 -0.72, 72.12 4.18, 71 17.75 M53.25 0 C66.12 -1.38, 71.02 7.41, 71 17.75 M71 17.75 C72.11 34.94, 70.35 49.04, 71 58.25 M71 17.75 C71.04 28, 70.95 39.4, 71 58.25 M71 58.25 C71.88 70.27, 66.22 74.57, 53.25 76 M71 58.25 C69.61 70.52, 66.71 77.03, 53.25 76 M53.25 76 C45.56 77.38, 38.24 75.52, 17.75 76 M53.25 76 C40.85 76.35, 26.66 75.57, 17.75 76 M17.75 76 C7.72 75.74, -1.69 70.7, 0 58.25 M17.75 76 C4.14 73.71, 1.13 69.62, 0 58.25 M0 58.25 C-1.58 44.21, -0.16 30.24, 0 17.75 M0 58.25 C-0.54 46.25, -1.08 34.2, 0 17.75 M0 17.75 C0.13 7.82, 7.79 -0.48, 17.75 0 M0 17.75 C1.87 7.21, 6.81 -1.85, 17.75 0" stroke="#000000" stroke-width="1" fill="none"></path></g><g stroke-linecap="round" transform="translate(67 666) rotate(0 312 28)"><path d="M14 0 M14 0 C170.76 -0.59, 326.8 -1.53, 610 0 M14 0 C203.85 -0.99, 394.31 -1.04, 610 0 M610 0 C620.75 0.58, 623.56 6.06, 624 14 M610 0 C619.47 -0.65, 625.67 5.7, 624 14 M624 14 C623.65 19.75, 624.52 27.33, 624 42 M624 14 C624.53 19.98, 625 24.5, 624 42 M624 42 C623.68 51.33, 618.76 55.81, 610 56 M624 42 C625.83 52.18, 618.84 55.44, 610 56 M610 56 C476.9 56.91, 342.09 56.81, 14 56 M610 56 C397.79 53.94, 185.08 54.16, 14 56 M14 56 C2.8 56.6, 0.89 52.76, 0 42 M14 56 C5.62 57.18, 2.11 49.3, 0 42 M0 42 C-1.2 32.15, -0.38 24.92, 0 14 M0 42 C-0.96 34.59, 0.24 26.41, 0 14 M0 14 C-0.39 6.09, 4.95 -1.39, 14 0 M0 14 C-0.6 3.74, 5.83 1.9, 14 0" stroke="#000000" stroke-width="1" fill="none"></path></g><g transform="translate(82 719) rotate(0 31.358333587646484 12.5)"><text x="0" y="0" font-family="Virgil, Segoe UI Emoji" font-size="20px" fill="#000000" text-anchor="start" style="white-space: pre;" direction="ltr" dominant-baseline="text-before-edge">footer</text></g><g stroke-linecap="round" transform="translate(89 674) rotate(0 92.5 19)"><path d="M9.5 0 M9.5 0 C45.67 0.97, 80.48 1.16, 175.5 0 M9.5 0 C67.22 0.23, 123.03 -0.77, 175.5 0 M175.5 0 C180.46 1.72, 183.61 1.47, 185 9.5 M175.5 0 C181.18 -0.87, 184.19 5.43, 185 9.5 M185 9.5 C185.85 13.2, 184.5 21.12, 185 28.5 M185 9.5 C184.48 15.95, 185.65 20.99, 185 28.5 M185 28.5 C186.93 33.87, 181.29 38.65, 175.5 38 M185 28.5 C186.4 33.37, 181.65 35.9, 175.5 38 M175.5 38 C111.25 37.17, 48.14 38.02, 9.5 38 M175.5 38 C141.42 39.07, 106.86 39.03, 9.5 38 M9.5 38 C1.77 38.5, -0.64 34.67, 0 28.5 M9.5 38 C3.34 39.51, -0.51 33.43, 0 28.5 M0 28.5 C0.79 25.52, 1.46 21.41, 0 9.5 M0 28.5 C-0.42 23.76, 0.33 19.77, 0 9.5 M0 9.5 C0.4 4.96, 3.46 1.98, 9.5 0 M0 9.5 C1.81 4.76, 1.31 -2.04, 9.5 0" stroke="#000000" stroke-width="1" fill="none"></path></g><g transform="translate(101 681) rotate(0 18.725000381469727 12.5)"><text x="0" y="0" font-family="Virgil, Segoe UI Emoji" font-size="20px" fill="#000000" text-anchor="start" style="white-space: pre;" direction="ltr" dominant-baseline="text-before-edge">logo</text></g><g stroke-linecap="round" transform="translate(529 675) rotate(0 77 17)"><path d="M8.5 0 M8.5 0 C37.02 -0.95, 64.56 -1.04, 145.5 0 M8.5 0 C39.93 0.51, 72.18 0.22, 145.5 0 M145.5 0 C149.95 -1.45, 153.44 3.37, 154 8.5 M145.5 0 C152.06 1.62, 155.71 4.72, 154 8.5 M154 8.5 C153.32 11.31, 154.67 15.46, 154 25.5 M154 8.5 C154.99 14.61, 154.74 18.69, 154 25.5 M154 25.5 C152.22 33.08, 151.54 32.47, 145.5 34 M154 25.5 C154.36 32.98, 151.22 36.27, 145.5 34 M145.5 34 C116.13 33.45, 90.7 31.85, 8.5 34 M145.5 34 C112.96 32.59, 80.61 32.83, 8.5 34 M8.5 34 C2.14 33.33, -1.6 31.24, 0 25.5 M8.5 34 C5.02 31.73, -1.65 33.23, 0 25.5 M0 25.5 C-0.82 17.35, -1.56 11.03, 0 8.5 M0 25.5 C0.54 20.11, -0.51 15.21, 0 8.5 M0 8.5 C-1.45 0.86, 4.6 -0.35, 8.5 0 M0 8.5 C1.56 4.38, 0.82 -0.99, 8.5 0" stroke="#000000" stroke-width="1" fill="none"></path></g><g transform="translate(549 689) rotate(0 39.32500076293945 12.5)"><text x="0" y="0" font-family="Virgil, Segoe UI Emoji" font-size="20px" fill="#000000" text-anchor="start" style="white-space: pre;" direction="ltr" dominant-baseline="text-before-edge">réseaux</text></g><g stroke-linecap="round" transform="translate(174 333) rotate(0 49 46)"><path d="M23 0 M23 0 C39.13 -0.63, 56.74 -0.08, 75 0 M23 0 C34.74 -0.11, 46.37 0.27, 75 0 M75 0 C92.23 -1.97, 96.56 9.46, 98 23 M75 0 C92.53 2.27, 99.37 6.78, 98 23 M98 23 C97.95 33.58, 97.97 44.26, 98 69 M98 23 C97.03 35.74, 98.64 50.28, 98 69 M98 69 C99.36 85.68, 88.58 91.14, 75 92 M98 69 C98.52 86.32, 90.36 92.66, 75 92 M75 92 C60.43 91.43, 45.65 90.45, 23 92 M75 92 C61.95 91.21, 47.3 91.88, 23 92 M23 92 C9.06 91.52, -0.87 84.85, 0 69 M23 92 C8.6 91.1, 0.87 85.96, 0 69 M0 69 C1.04 55.88, -2.09 38.47, 0 23 M0 69 C-0.27 56.07, 0.62 45.58, 0 23 M0 23 C0.91 9.3, 7.01 -1.4, 23 0 M0 23 C0.25 7.53, 9.38 -0.95, 23 0" stroke="#000000" stroke-width="1" fill="none"></path></g><g stroke-linecap="round" transform="translate(283 336) rotate(0 49 42.5)"><path d="M21.25 0 M21.25 0 C35.17 -0.44, 45.41 0.56, 76.75 0 M21.25 0 C40.87 0.05, 59.29 -0.26, 76.75 0 M76.75 0 C92.06 1.87, 96.01 6.54, 98 21.25 M76.75 0 C90.04 0.86, 98.84 6.87, 98 21.25 M98 21.25 C99.25 31.89, 97.69 37.87, 98 63.75 M98 21.25 C97.56 33.83, 98.18 46.7, 98 63.75 M98 63.75 C97.74 76.91, 92.55 84.56, 76.75 85 M98 63.75 C99.06 76.84, 89.65 83.97, 76.75 85 M76.75 85 C54.7 84.13, 36.56 84.51, 21.25 85 M76.75 85 C57.22 85.8, 36.19 84.55, 21.25 85 M21.25 85 C8.84 84.76, 0.15 77.69, 0 63.75 M21.25 85 C6.74 82.96, 0.7 77.58, 0 63.75 M0 63.75 C1.1 54.27, -0.73 44.14, 0 21.25 M0 63.75 C-0.44 48.89, 1.19 32.7, 0 21.25 M0 21.25 C-0.06 6.41, 7.06 1.29, 21.25 0 M0 21.25 C-1.35 8.53, 6.1 0.3, 21.25 0" stroke="#000000" stroke-width="1" fill="none"></path></g><g stroke-linecap="round" transform="translate(391 335) rotate(0 50 43.5)"><path d="M21.75 0 M21.75 0 C40.75 -0.06, 63.67 0.31, 78.25 0 M21.75 0 C42.87 -0.13, 62.48 -1.38, 78.25 0 M78.25 0 C94.5 -0.24, 100.15 7.02, 100 21.75 M78.25 0 C92.41 -2.04, 100.7 6.91, 100 21.75 M100 21.75 C100.39 30.55, 98.56 38.71, 100 65.25 M100 21.75 C99.01 37.93, 100.65 52.79, 100 65.25 M100 65.25 C99.94 79.08, 92.73 88.29, 78.25 87 M100 65.25 C98.65 81.19, 91.77 87.3, 78.25 87 M78.25 87 C62.36 86.7, 46.24 86.06, 21.75 87 M78.25 87 C63.84 85.55, 47.97 86.6, 21.75 87 M21.75 87 C5.79 85.65, 0.08 78.73, 0 65.25 M21.75 87 C8.56 85.6, 0.51 78.55, 0 65.25 M0 65.25 C-0.42 53.51, 0.47 43.61, 0 21.75 M0 65.25 C0.81 55.57, -0.23 45.62, 0 21.75 M0 21.75 C-1.07 8.97, 6.84 0.73, 21.75 0 M0 21.75 C-1.41 5.4, 5.84 1.03, 21.75 0" stroke="#000000" stroke-width="1" fill="none"></path></g><g stroke-linecap="round" transform="translate(500 335) rotate(0 46.5 44.5)"><path d="M22.25 0 M22.25 0 C32.56 -0.08, 46.92 -1.85, 70.75 0 M22.25 0 C34.11 -0.36, 45.04 -0.27, 70.75 0 M70.75 0 C84.85 0.55, 92.49 7.12, 93 22.25 M70.75 0 C85.25 0.68, 94.44 5.54, 93 22.25 M93 22.25 C92.65 35.83, 91.73 49.03, 93 66.75 M93 22.25 C92.3 38.63, 92.3 57.07, 93 66.75 M93 66.75 C94.17 82.49, 84.42 87.5, 70.75 89 M93 66.75 C90.72 81.69, 83.74 88.29, 70.75 89 M70.75 89 C60.12 87.2, 47.07 88.12, 22.25 89 M70.75 89 C59.22 89.12, 46.11 88.84, 22.25 89 M22.25 89 C9.34 89.76, 0.68 81.2, 0 66.75 M22.25 89 C7.61 86.7, 0 81.13, 0 66.75 M0 66.75 C-0.89 49.74, -1.48 31.88, 0 22.25 M0 66.75 C-0.23 53.06, 1.01 38.2, 0 22.25 M0 22.25 C1.01 7.48, 6.55 0.02, 22.25 0 M0 22.25 C-2.16 7.54, 8.61 -0.63, 22.25 0" stroke="#000000" stroke-width="1" fill="none"></path></g><g stroke-linecap="round" transform="translate(210 347) rotate(0 8 9.5)"><path d="M4 0 M4 0 C7.13 0.33, 8.98 -0.13, 12 0 M4 0 C6.39 0.39, 8.66 0.02, 12 0 M12 0 C13.48 0.7, 14.22 1.87, 16 4 M12 0 C15.02 -1.43, 14.64 0.18, 16 4 M16 4 C16.64 7.71, 15.61 11.37, 16 15 M16 4 C15.85 6.77, 15.46 8.93, 16 15 M16 15 C17.51 19.32, 15.12 20.49, 12 19 M16 15 C14.8 16.51, 16.66 18.33, 12 19 M12 19 C10.13 19.68, 7.93 18.81, 4 19 M12 19 C10.2 18.76, 8.38 18.9, 4 19 M4 19 C0.89 18.33, -0.35 18.73, 0 15 M4 19 C1.62 20.39, -1.73 17.9, 0 15 M0 15 C-0.95 12.03, -0.02 8.7, 0 4 M0 15 C0.47 11.98, 0.25 7.88, 0 4 M0 4 C0.25 1.65, 2.38 1.74, 4 0 M0 4 C1.36 0.16, 3.28 -0.96, 4 0" stroke="#000000" stroke-width="1" fill="none"></path></g><g stroke-linecap="round" transform="translate(318 344.5) rotate(0 8 9.5)"><path d="M4 0 M4 0 C5.61 0.34, 8.02 -0.4, 12 0 M4 0 C6.62 -0.11, 9.19 -0.4, 12 0 M12 0 C16.09 1.51, 17.65 1.79, 16 4 M12 0 C16.38 -1.2, 14.84 3.32, 16 4 M16 4 C16.83 7.18, 16.8 9.9, 16 15 M16 4 C15.96 6.93, 15.57 9.84, 16 15 M16 15 C15.48 17.23, 14 18.65, 12 19 M16 15 C17.22 17.95, 16.06 17.27, 12 19 M12 19 C9.81 18.18, 7.04 18.86, 4 19 M12 19 C9.75 19.39, 7.93 19.22, 4 19 M4 19 C-0.56 19.25, 0.31 18.71, 0 15 M4 19 C3.34 20.36, -1.17 19.61, 0 15 M0 15 C-0.21 12.26, 0.87 9.69, 0 4 M0 15 C0.4 11.01, 0.21 6.92, 0 4 M0 4 C-1.69 3.31, 0.71 -1.1, 4 0 M0 4 C-0.84 1.02, -0.75 -1.41, 4 0" stroke="#000000" stroke-width="1" fill="none"></path></g><g stroke-linecap="round" transform="translate(425 344.5) rotate(0 8 9.5)"><path d="M4 0 M4 0 C6.81 -0.72, 9.65 0.45, 12 0 M4 0 C6.46 0.38, 8.69 0.17, 12 0 M12 0 C16.15 -1.04, 14.99 3.06, 16 4 M12 0 C14 -1.11, 17.47 3.17, 16 4 M16 4 C15.74 6.65, 16.54 11.11, 16 15 M16 4 C15.79 7.13, 15.75 10.4, 16 15 M16 15 C17.06 17.91, 15.88 17.5, 12 19 M16 15 C16.23 16.98, 12.81 19.84, 12 19 M12 19 C10.09 18.99, 8.92 18.76, 4 19 M12 19 C8.49 19.09, 5.8 19.25, 4 19 M4 19 C3.08 20.19, -1.02 19.36, 0 15 M4 19 C0.38 18.7, -2.2 17.19, 0 15 M0 15 C0.4 12.46, 0.35 9.16, 0 4 M0 15 C-0.52 12.64, -0.23 8.89, 0 4 M0 4 C-0.73 1.06, -0.48 -1.23, 4 0 M0 4 C-0.5 2.28, -0.8 -2.22, 4 0" stroke="#000000" stroke-width="1" fill="none"></path></g><g stroke-linecap="round" transform="translate(534 344.5) rotate(0 8 9.5)"><path d="M4 0 M4 0 C5.43 0.7, 6.5 0.53, 12 0 M4 0 C7.3 -0.23, 9.81 0.33, 12 0 M12 0 C14.09 -0.96, 17.28 2.93, 16 4 M12 0 C15.09 1.78, 15.87 0.62, 16 4 M16 4 C15.99 5.76, 15.9 8.61, 16 15 M16 4 C16.26 7.12, 16.3 9.7, 16 15 M16 15 C16.2 17.07, 13.05 19.73, 12 19 M16 15 C13.83 17.66, 14.44 18.24, 12 19 M12 19 C10.33 19.39, 7.61 18.22, 4 19 M12 19 C9.85 19.28, 6.79 19.38, 4 19 M4 19 C0.5 18.74, -1.91 17.26, 0 15 M4 19 C1.55 20.78, 0.78 18.69, 0 15 M0 15 C-0.44 11.42, -1.05 5.74, 0 4 M0 15 C-0.17 10.54, -0.46 5.89, 0 4 M0 4 C-0.44 2.16, -0.52 -1.93, 4 0 M0 4 C-2.22 2.56, 2.34 -0.43, 4 0" stroke="#000000" stroke-width="1" fill="none"></path></g><g stroke-linecap="round" transform="translate(194 368) rotate(0 26 3.5)"><path d="M1.75 0 M1.75 0 C16.86 0.56, 30.21 -0.87, 50.25 0 M1.75 0 C15.32 -0.07, 30.09 0.23, 50.25 0 M50.25 0 C52.63 -1.5, 52.2 -0.02, 52 1.75 M50.25 0 C49.56 0.84, 49.83 0.58, 52 1.75 M52 1.75 C52.08 2.66, 52.31 3.96, 52 5.25 M52 1.75 C51.99 3.07, 52.12 4.31, 52 5.25 M52 5.25 C50.98 8.11, 50.59 6.74, 50.25 7 M52 5.25 C49.8 5.94, 51.63 8.78, 50.25 7 M50.25 7 C34.85 9.14, 17.14 8.44, 1.75 7 M50.25 7 C39.84 6.93, 29.7 7.34, 1.75 7 M1.75 7 C-1.23 5.77, -0.44 7.24, 0 5.25 M1.75 7 C-1.55 4.78, -2.22 7.64, 0 5.25 M0 5.25 C0.32 3.86, -0.2 3.03, 0 1.75 M0 5.25 C0.07 4.37, -0.18 3.01, 0 1.75 M0 1.75 C-1.23 1.96, 2.3 1.55, 1.75 0 M0 1.75 C-1.74 -1.54, 1.1 1.6, 1.75 0" stroke="#000000" stroke-width="1" fill="none"></path></g><g stroke-linecap="round" transform="translate(298 366.5) rotate(0 26 3.5)"><path d="M1.75 0 M1.75 0 C18.84 0.01, 40.04 0.8, 50.25 0 M1.75 0 C21.37 -0.17, 39.17 -0.71, 50.25 0 M50.25 0 C51.01 0.19, 53.55 1.26, 52 1.75 M50.25 0 C52.44 1.81, 52.91 2.61, 52 1.75 M52 1.75 C51.72 3.02, 51.91 3.4, 52 5.25 M52 1.75 C51.89 2.63, 52.07 3.43, 52 5.25 M52 5.25 C50.07 4.48, 52.48 7.88, 50.25 7 M52 5.25 C51.57 6, 53.49 5.8, 50.25 7 M50.25 7 C40.56 8.45, 28.19 8.77, 1.75 7 M50.25 7 C40.35 7.56, 29.85 5.95, 1.75 7 M1.75 7 C-1.27 7.44, 1.4 7.48, 0 5.25 M1.75 7 C-0.45 6.99, 1.86 7.74, 0 5.25 M0 5.25 C0.23 3.93, 0 2.87, 0 1.75 M0 5.25 C0.06 4.54, 0.02 3.79, 0 1.75 M0 1.75 C-0.83 -0.5, -0.72 -0.15, 1.75 0 M0 1.75 C-2.18 -0.01, 2.26 0.67, 1.75 0" stroke="#000000" stroke-width="1" fill="none"></path></g><g stroke-linecap="round" transform="translate(409 360.5) rotate(0 26 3.5)"><path d="M1.75 0 M1.75 0 C18.66 0.93, 31.06 1.44, 50.25 0 M1.75 0 C14.08 0.56, 27.6 0.8, 50.25 0 M50.25 0 C52.3 1.57, 52.79 2.34, 52 1.75 M50.25 0 C50.59 1.22, 49.89 -1.36, 52 1.75 M52 1.75 C51.86 3.1, 51.67 4.33, 52 5.25 M52 1.75 C51.85 2.55, 52.11 3.77, 52 5.25 M52 5.25 C51.63 6.05, 53.22 5.96, 50.25 7 M52 5.25 C50.62 7.67, 51.31 9.24, 50.25 7 M50.25 7 C30.5 5.51, 12.78 8.81, 1.75 7 M50.25 7 C30.62 6.86, 13.54 7.16, 1.75 7 M1.75 7 C-0.32 6.99, 1.62 7.57, 0 5.25 M1.75 7 C1.46 7.87, -1.43 8.02, 0 5.25 M0 5.25 C-0.28 4.34, -0.29 3.55, 0 1.75 M0 5.25 C-0.08 3.98, -0.12 2.88, 0 1.75 M0 1.75 C-1.9 0.07, 2.04 0.58, 1.75 0 M0 1.75 C-1.55 -0.68, 0.9 -0.85, 1.75 0" stroke="#000000" stroke-width="1" fill="none"></path></g><g stroke-linecap="round" transform="translate(519 361.5) rotate(0 26 3.5)"><path d="M1.75 0 M1.75 0 C18.35 -0.67, 34.69 -0.82, 50.25 0 M1.75 0 C17.2 0.62, 32.15 0.72, 50.25 0 M50.25 0 C50.69 1.06, 50.16 -1.11, 52 1.75 M50.25 0 C53.69 -0.72, 50.74 -0.25, 52 1.75 M52 1.75 C51.89 2.9, 51.64 3.42, 52 5.25 M52 1.75 C51.99 2.43, 52.18 3.08, 52 5.25 M52 5.25 C50.8 7.5, 51.33 8.95, 50.25 7 M52 5.25 C53.69 7.81, 53.47 5.12, 50.25 7 M50.25 7 C42.09 8.89, 28.98 5.49, 1.75 7 M50.25 7 C34.17 7.25, 19.8 7.83, 1.75 7 M1.75 7 C1.34 7.76, -1.24 7.81, 0 5.25 M1.75 7 C-0.35 7.12, -0.11 4.58, 0 5.25 M0 5.25 C0.16 4.25, 0.18 3.01, 0 1.75 M0 5.25 C-0.14 4.34, 0.15 3.58, 0 1.75 M0 1.75 C-1.34 -0.52, 0.86 -0.74, 1.75 0 M0 1.75 C-1.65 2.44, -1.27 1.24, 1.75 0" stroke="#000000" stroke-width="1" fill="none"></path></g><g stroke-linecap="round" transform="translate(196 382) rotate(0 24.5 10)"><path d="M5 0 M5 0 C18.09 -0.36, 35.19 1.6, 44 0 M5 0 C18.42 0.57, 30.68 0.23, 44 0 M44 0 C45.5 -1.69, 50.97 1.04, 49 5 M44 0 C46.07 -0.84, 48.69 -0.42, 49 5 M49 5 C48.05 6.42, 48.01 10.31, 49 15 M49 5 C49.43 8.18, 48.68 12.15, 49 15 M49 15 C48.91 20.28, 48.81 21.21, 44 20 M49 15 C51.06 16.46, 45.12 18.59, 44 20 M44 20 C28.09 18.45, 15.66 21.7, 5 20 M44 20 C31.04 20.58, 16.84 20.38, 5 20 M5 20 C0.43 21.4, -0.81 18.44, 0 15 M5 20 C1.56 18.16, -0.02 16.46, 0 15 M0 15 C0.39 11.25, -0.58 7.69, 0 5 M0 15 C0.46 12.22, -0.24 8.88, 0 5 M0 5 C0.27 0.93, 0.24 1.61, 5 0 M0 5 C-1.86 2.91, -0.51 -2.26, 5 0" stroke="#000000" stroke-width="1" fill="none"></path></g><g stroke-linecap="round" transform="translate(301.5 374) rotate(0 24.5 10)"><path d="M5 0 M5 0 C21.3 0.14, 37.38 1.71, 44 0 M5 0 C18.1 -0.3, 33.82 1.17, 44 0 M44 0 C48.89 -1.51, 47.15 2.11, 49 5 M44 0 C48.94 1.22, 47.97 1.66, 49 5 M49 5 C49.44 8.19, 49.76 12.21, 49 15 M49 5 C48.99 7.64, 49.16 11.29, 49 15 M49 15 C49.27 19.19, 46.5 18.92, 44 20 M49 15 C47.5 18.16, 45.15 19.41, 44 20 M44 20 C28.35 20.01, 14.16 18.31, 5 20 M44 20 C28.21 19.23, 14.6 19.3, 5 20 M5 20 C-0.27 18.56, -0.83 18.01, 0 15 M5 20 C3.7 19.45, -0.02 20.24, 0 15 M0 15 C0.53 10.65, -1.04 7.6, 0 5 M0 15 C-0.21 13.34, 0.27 10.68, 0 5 M0 5 C0.09 1.75, -0.16 1.18, 5 0 M0 5 C1.54 3.62, 1.66 -1.76, 5 0" stroke="#000000" stroke-width="1" fill="none"></path></g><g stroke-linecap="round" transform="translate(411.5 368) rotate(0 22 13)"><path d="M6.5 0 M6.5 0 C16.87 1.56, 23.19 -2.15, 37.5 0 M6.5 0 C14.67 -1.02, 20.36 -0.04, 37.5 0 M37.5 0 C43.23 1.06, 43.1 2.16, 44 6.5 M37.5 0 C43.69 1.33, 44.87 3.04, 44 6.5 M44 6.5 C44.16 9.53, 43.05 12.68, 44 19.5 M44 6.5 C44.13 9.62, 43.77 11.83, 44 19.5 M44 19.5 C42.7 23.68, 39.93 25.48, 37.5 26 M44 19.5 C45.68 24.5, 40.29 24.74, 37.5 26 M37.5 26 C29.39 24.16, 19.13 23.88, 6.5 26 M37.5 26 C30.27 25, 24.56 25.55, 6.5 26 M6.5 26 C3.94 25.52, -0.01 25.49, 0 19.5 M6.5 26 C3.41 27.44, 0.48 25.19, 0 19.5 M0 19.5 C-1 17.05, 0.22 13.32, 0 6.5 M0 19.5 C-0.05 14.38, -0.67 9.59, 0 6.5 M0 6.5 C1.34 3.86, 2.16 -1.53, 6.5 0 M0 6.5 C0.04 0.62, 1.86 2.06, 6.5 0" stroke="#000000" stroke-width="1" fill="none"></path></g><g stroke-linecap="round" transform="translate(520.5 372) rotate(0 24.5 10)"><path d="M5 0 M5 0 C18.96 1.76, 37.09 1.93, 44 0 M5 0 C14.45 0.44, 22.05 -0.09, 44 0 M44 0 C48.95 1.15, 49.76 2.42, 49 5 M44 0 C45.91 1.61, 48.07 1.79, 49 5 M49 5 C48.1 8.28, 49.28 11.04, 49 15 M49 5 C48.63 8.39, 48.48 11.73, 49 15 M49 15 C50.46 18.91, 45.99 18.9, 44 20 M49 15 C49.31 17.49, 45.69 21.86, 44 20 M44 20 C33.48 20.21, 25.07 17.69, 5 20 M44 20 C36 19.7, 26.22 20.76, 5 20 M5 20 C2.75 21.26, 0.42 19.51, 0 15 M5 20 C-0.18 17.75, -0.73 16.34, 0 15 M0 15 C0.95 12.3, -0.11 8.43, 0 5 M0 15 C0.43 12.38, 0.09 8.54, 0 5 M0 5 C0.03 0.33, 1.4 1.79, 5 0 M0 5 C0.85 1.48, 2.78 -0.86, 5 0" stroke="#000000" stroke-width="1" fill="none"></path></g><g stroke-linecap="round" transform="translate(203 409) rotate(0 15.5 5.5)"><path d="M2.75 0 M2.75 0 C14.31 1.08, 23.82 0.42, 28.25 0 M2.75 0 C11.59 -0.62, 21.37 0.32, 28.25 0 M28.25 0 C29.35 1.92, 32.22 0.71, 31 2.75 M28.25 0 C30.19 0.09, 28.9 2.28, 31 2.75 M31 2.75 C30.63 4.78, 30.68 6.71, 31 8.25 M31 2.75 C31.15 4.79, 31.23 7.18, 31 8.25 M31 8.25 C30.81 9.01, 30.19 10.16, 28.25 11 M31 8.25 C29.72 8.75, 29.56 13.16, 28.25 11 M28.25 11 C20.81 11.81, 10.85 12.17, 2.75 11 M28.25 11 C21.54 10.05, 14.64 10.35, 2.75 11 M2.75 11 C-0.21 9.45, -0.47 9.44, 0 8.25 M2.75 11 C0.54 11.97, 1.45 12.21, 0 8.25 M0 8.25 C0.52 6.22, -0.29 4.81, 0 2.75 M0 8.25 C0.05 5.94, -0.1 4.23, 0 2.75 M0 2.75 C1.73 0.96, 0.73 0.72, 2.75 0 M0 2.75 C-0.38 -0.96, 2.33 -1.7, 2.75 0" stroke="#000000" stroke-width="1" fill="none"></path></g><g stroke-linecap="round" transform="translate(310.5 403.5) rotate(0 15.5 5.5)"><path d="M2.75 0 M2.75 0 C11.9 -1.75, 21.1 -1.56, 28.25 0 M2.75 0 C9.98 0.39, 17 0.69, 28.25 0 M28.25 0 C31.15 -0.19, 29.93 1.02, 31 2.75 M28.25 0 C29.11 -1.28, 29.67 0.39, 31 2.75 M31 2.75 C30.64 5.46, 31.31 7.47, 31 8.25 M31 2.75 C30.98 4.73, 30.71 6.66, 31 8.25 M31 8.25 C29.7 8.95, 28.54 10.53, 28.25 11 M31 8.25 C30.26 9.71, 31.05 12.45, 28.25 11 M28.25 11 C18.83 13.09, 7.33 10.15, 2.75 11 M28.25 11 C19.54 10.94, 11.08 10.4, 2.75 11 M2.75 11 C1.91 12.73, 0.04 9.9, 0 8.25 M2.75 11 C1.74 10.62, -1.88 11.5, 0 8.25 M0 8.25 C0.26 7.5, 0.35 5.63, 0 2.75 M0 8.25 C-0.03 6.74, 0.2 5, 0 2.75 M0 2.75 C-1.31 2.02, 1.99 -1.3, 2.75 0 M0 2.75 C-1.78 2.55, 2.82 0.73, 2.75 0" stroke="#000000" stroke-width="1" fill="none"></path></g><g stroke-linecap="round" transform="translate(421.5 398.5) rotate(0 15.5 5.5)"><path d="M2.75 0 M2.75 0 C9.31 -1.13, 16.4 -0.47, 28.25 0 M2.75 0 C12.07 0.86, 23.33 0.58, 28.25 0 M28.25 0 C31.44 -0.85, 30.96 0.93, 31 2.75 M28.25 0 C29.74 -2.19, 29.89 -0.58, 31 2.75 M31 2.75 C30.78 4, 31.19 5.77, 31 8.25 M31 2.75 C31.09 5.18, 30.89 6.93, 31 8.25 M31 8.25 C31.41 11.65, 29.06 9.92, 28.25 11 M31 8.25 C31.16 8.17, 29.01 12.14, 28.25 11 M28.25 11 C19.11 10.65, 6.9 12.21, 2.75 11 M28.25 11 C22.9 11.77, 17.31 10.62, 2.75 11 M2.75 11 C0.62 9.94, -1.62 9.63, 0 8.25 M2.75 11 C1.4 12.45, -0.95 8.57, 0 8.25 M0 8.25 C-0.45 6.69, 0.42 4.52, 0 2.75 M0 8.25 C-0.13 6.48, -0.12 4.89, 0 2.75 M0 2.75 C1.06 1.4, 2.59 -0.77, 2.75 0 M0 2.75 C-0.51 0.39, 2.86 1.12, 2.75 0" stroke="#000000" stroke-width="1" fill="none"></path></g><g stroke-linecap="round" transform="translate(529.5 396.5) rotate(0 15.5 5.5)"><path d="M2.75 0 M2.75 0 C13.39 -0.83, 20.24 -0.52, 28.25 0 M2.75 0 C11.79 0.24, 21.56 -0.01, 28.25 0 M28.25 0 C30.69 1.2, 29.55 0.23, 31 2.75 M28.25 0 C31.55 2.2, 32.75 2.66, 31 2.75 M31 2.75 C30.58 4.71, 30.62 7.28, 31 8.25 M31 2.75 C31.08 4.68, 30.84 6.76, 31 8.25 M31 8.25 C31.47 10.63, 30.74 12.18, 28.25 11 M31 8.25 C31.24 11.35, 30.68 8.78, 28.25 11 M28.25 11 C19.89 12.12, 15.18 9.17, 2.75 11 M28.25 11 C18.87 10.24, 10.33 12.01, 2.75 11 M2.75 11 C0.44 12.46, -1.63 9.29, 0 8.25 M2.75 11 C1.25 10.85, -1.25 9.96, 0 8.25 M0 8.25 C0.51 5.93, -0.21 4.33, 0 2.75 M0 8.25 C-0.29 6.95, 0.2 5.61, 0 2.75 M0 2.75 C0.74 0.18, 2.04 -1.1, 2.75 0 M0 2.75 C-1.58 0.6, 1.67 0.34, 2.75 0" stroke="#000000" stroke-width="1" fill="none"></path></g><g stroke-linecap="round" transform="translate(448 53) rotate(0 25 12.5)"><path d="M6.25 0 M6.25 0 C19.44 -0.34, 34.15 1.26, 43.75 0 M6.25 0 C19.71 0.07, 32.13 0.52, 43.75 0 M43.75 0 C48.39 0.55, 50.66 3.26, 50 6.25 M43.75 0 C48.15 1.27, 50.59 -0.13, 50 6.25 M50 6.25 C48.98 10.24, 50.36 11.78, 50 18.75 M50 6.25 C49.96 10.27, 50.41 15.9, 50 18.75 M50 18.75 C49.52 24.38, 46.29 24.21, 43.75 25 M50 18.75 C50.33 22.77, 46.67 24.88, 43.75 25 M43.75 25 C32.3 23.29, 16.54 24.47, 6.25 25 M43.75 25 C33.79 25.12, 26.42 25.1, 6.25 25 M6.25 25 C2.83 24.26, 1.13 21.81, 0 18.75 M6.25 25 C0.5 24.68, 0.76 23.26, 0 18.75 M0 18.75 C0.36 15.81, 0.93 14.01, 0 6.25 M0 18.75 C-0.09 15.24, 0.42 10.08, 0 6.25 M0 6.25 C1.53 1.14, 1.94 1.49, 6.25 0 M0 6.25 C-1.33 4.21, 1.25 -2.03, 6.25 0" stroke="#000000" stroke-width="1" fill="none"></path></g><g stroke-linecap="round" transform="translate(506.5 47.5) rotate(0 24.5 12.5)"><path d="M6.25 0 M6.25 0 C16.66 1.22, 32.26 -0.43, 42.75 0 M6.25 0 C20.02 0.08, 32.95 0.09, 42.75 0 M42.75 0 C47.92 -1.69, 47.49 3.76, 49 6.25 M42.75 0 C45.28 -1.09, 48.71 0.78, 49 6.25 M49 6.25 C49.16 12.31, 49.14 16.58, 49 18.75 M49 6.25 C48.64 9.45, 49.28 12.92, 49 18.75 M49 18.75 C47.47 21, 48.07 25.38, 42.75 25 M49 18.75 C48.73 24.4, 48.46 25.71, 42.75 25 M42.75 25 C32.01 26.53, 15.99 26.52, 6.25 25 M42.75 25 C32.95 26.2, 23.95 24.39, 6.25 25 M6.25 25 C0.52 26.98, -1.85 21.48, 0 18.75 M6.25 25 C0.8 23.36, -0.25 21.32, 0 18.75 M0 18.75 C-0.61 14.85, -0.47 11.19, 0 6.25 M0 18.75 C-0.42 15.09, -0.17 12.27, 0 6.25 M0 6.25 C1.88 1.48, 3.87 0.94, 6.25 0 M0 6.25 C0.88 2.93, 1.65 -0.41, 6.25 0" stroke="#000000" stroke-width="1" fill="none"></path></g><g stroke-linecap="round" transform="translate(559.5 47.5) rotate(0 24.5 12.5)"><path d="M6.25 0 M6.25 0 C20.81 -1.54, 31.64 0.38, 42.75 0 M6.25 0 C17.47 -0.83, 26.93 0.86, 42.75 0 M42.75 0 C45.49 -0.95, 48.75 0.95, 49 6.25 M42.75 0 C49.09 -0.1, 47.05 2.39, 49 6.25 M49 6.25 C48.55 11.83, 48.32 15.14, 49 18.75 M49 6.25 C48.56 9.23, 49.4 13.53, 49 18.75 M49 18.75 C48.76 24.21, 48.26 25.62, 42.75 25 M49 18.75 C50.13 23.87, 46.81 27.29, 42.75 25 M42.75 25 C28.04 25.13, 16.71 24.12, 6.25 25 M42.75 25 C27.64 25.67, 13.17 23.96, 6.25 25 M6.25 25 C0.97 23.57, -0.22 21.53, 0 18.75 M6.25 25 C2.93 25.32, -1.79 21.83, 0 18.75 M0 18.75 C-0.53 15.08, 0.86 9.89, 0 6.25 M0 18.75 C0.61 15.78, 0.59 13.49, 0 6.25 M0 6.25 C0.77 2.82, 1.7 -0.36, 6.25 0 M0 6.25 C-1.62 1.85, 1.43 -0.52, 6.25 0" stroke="#000000" stroke-width="1" fill="none"></path></g><g stroke-linecap="round" transform="translate(614.5 47.5) rotate(0 24.5 12.5)"><path d="M6.25 0 M6.25 0 C14.09 -1.14, 22.09 0.95, 42.75 0 M6.25 0 C13.4 -0.78, 21.85 -0.88, 42.75 0 M42.75 0 C48.81 -0.09, 47.3 2.35, 49 6.25 M42.75 0 C48.99 0.27, 49.86 1.23, 49 6.25 M49 6.25 C48.76 11.11, 49.12 14.2, 49 18.75 M49 6.25 C49 9.21, 49.49 11.55, 49 18.75 M49 18.75 C49.98 23.75, 46.83 26.99, 42.75 25 M49 18.75 C50.77 21.44, 48.68 23.91, 42.75 25 M42.75 25 C33.92 24.07, 19.63 23.22, 6.25 25 M42.75 25 C27.63 24.02, 13.51 24.05, 6.25 25 M6.25 25 C2.82 25.28, -1.56 21.97, 0 18.75 M6.25 25 C2.64 24.17, 1.58 21.86, 0 18.75 M0 18.75 C-1.05 14.35, -0.33 11.64, 0 6.25 M0 18.75 C0.13 15.61, -0.23 11.89, 0 6.25 M0 6.25 C-1.41 1.88, 1.51 -0.45, 6.25 0 M0 6.25 C1.65 0.28, 1.55 0.04, 6.25 0" stroke="#000000" stroke-width="1" fill="none"></path></g><g stroke-linecap="round" transform="translate(176 51) rotate(0 47 11)"><path d="M5.5 0 M5.5 0 C36.73 0.57, 65.92 1.74, 88.5 0 M5.5 0 C36.33 -0.71, 68.85 -1.22, 88.5 0 M88.5 0 C94.02 -0.72, 92.24 0.27, 94 5.5 M88.5 0 C94.45 -2.12, 92.35 0.55, 94 5.5 M94 5.5 C94.39 8.17, 93.13 10.01, 94 16.5 M94 5.5 C93.71 9.24, 94.32 12.3, 94 16.5 M94 16.5 C92.44 19.75, 91.76 23.88, 88.5 22 M94 16.5 C93.3 22.23, 93.25 22.88, 88.5 22 M88.5 22 C59.14 21.65, 32.02 21.4, 5.5 22 M88.5 22 C57.66 21.98, 27.3 21.92, 5.5 22 M5.5 22 C-0.16 23.36, 0.51 21.94, 0 16.5 M5.5 22 C4.02 21.38, 0.39 18.32, 0 16.5 M0 16.5 C0.12 11.65, -0.18 7.75, 0 5.5 M0 16.5 C0.07 13.56, 0.26 10.49, 0 5.5 M0 5.5 C0.69 2.87, 2.52 -1.16, 5.5 0 M0 5.5 C-1.62 1.06, 0.73 0.66, 5.5 0" stroke="#000000" stroke-width="1" fill="none"></path></g><g stroke-linecap="round" transform="translate(156 675) rotate(0 46 17.5)"><path d="M8.75 0 M8.75 0 C28.95 1.09, 51.3 0.07, 83.25 0 M8.75 0 C33.14 0.03, 58.65 -0.09, 83.25 0 M83.25 0 C90.52 -1.57, 91.54 2.95, 92 8.75 M83.25 0 C89.49 1.18, 92.27 0.63, 92 8.75 M92 8.75 C93.71 14.72, 92.34 20.22, 92 26.25 M92 8.75 C92.17 14.98, 91.94 21.98, 92 26.25 M92 26.25 C91.59 32.54, 87.83 35.35, 83.25 35 M92 26.25 C92.55 33.28, 89.66 35.79, 83.25 35 M83.25 35 C55.64 33.9, 29.89 35.14, 8.75 35 M83.25 35 C65.42 34.58, 48.76 35.47, 8.75 35 M8.75 35 C1.18 35.81, -1.11 33.6, 0 26.25 M8.75 35 C1.39 33.52, -2.04 31.56, 0 26.25 M0 26.25 C1.3 19.82, 0.18 18.29, 0 8.75 M0 26.25 C-0.33 19.94, -0.71 12.11, 0 8.75 M0 8.75 C-1.49 2.26, 3.62 -0.58, 8.75 0 M0 8.75 C-1.73 4.93, 4.07 -0.1, 8.75 0" stroke="#000000" stroke-width="1" fill="none"></path></g><g stroke-linecap="round" transform="translate(540 682) rotate(0 15 10.5)"><path d="M5.25 0 M5.25 0 C10.64 -1.44, 17.63 -1, 24.75 0 M5.25 0 C12.27 -0.2, 17.2 0.67, 24.75 0 M24.75 0 C28.26 -1.74, 30.81 0.64, 30 5.25 M24.75 0 C30 -1.53, 28.52 -0.29, 30 5.25 M30 5.25 C29.54 8.88, 28.94 11.12, 30 15.75 M30 5.25 C30.27 9.14, 30.4 12.94, 30 15.75 M30 15.75 C28.82 17.76, 27.59 21.7, 24.75 21 M30 15.75 C29.34 17.52, 30.27 22.15, 24.75 21 M24.75 21 C17.06 21.36, 11.64 21.66, 5.25 21 M24.75 21 C18.37 21.68, 11.05 21.57, 5.25 21 M5.25 21 C1.15 19.89, -0.32 18.68, 0 15.75 M5.25 21 C3.63 22.27, -0.6 18.18, 0 15.75 M0 15.75 C0.64 12.6, 0.46 8.16, 0 5.25 M0 15.75 C0.39 11.64, 0.47 7.35, 0 5.25 M0 5.25 C-1.63 2.85, 0.27 0.55, 5.25 0 M0 5.25 C-1.49 0.52, 1.92 1.16, 5.25 0" stroke="#000000" stroke-width="1" fill="none"></path></g><g stroke-linecap="round" transform="translate(576 679.5) rotate(0 15 10.5)"><path d="M5.25 0 M5.25 0 C13.37 -0.61, 21.32 -1.46, 24.75 0 M5.25 0 C10.29 -0.22, 13.91 0.92, 24.75 0 M24.75 0 C29.25 -0.09, 29.21 3.08, 30 5.25 M24.75 0 C25.98 0.27, 28.13 2.38, 30 5.25 M30 5.25 C30.78 9.6, 30.48 13.29, 30 15.75 M30 5.25 C29.79 8.51, 30.23 10.78, 30 15.75 M30 15.75 C29.07 19.93, 29.28 19.84, 24.75 21 M30 15.75 C31.53 20.02, 29.38 19.75, 24.75 21 M24.75 21 C18.51 20.68, 11.22 19.87, 5.25 21 M24.75 21 C20.75 20.22, 15.7 20.93, 5.25 21 M5.25 21 C2.76 22.61, 0.78 17.57, 0 15.75 M5.25 21 C3.54 19.73, -2.28 19.63, 0 15.75 M0 15.75 C-0.55 11.56, -0.87 9.17, 0 5.25 M0 15.75 C0.29 13.63, -0.25 10.26, 0 5.25 M0 5.25 C-0.55 2.42, 3.22 -1.03, 5.25 0 M0 5.25 C-0.8 0.82, 2.74 -0.03, 5.25 0" stroke="#000000" stroke-width="1" fill="none"></path></g><g stroke-linecap="round" transform="translate(614 680.5) rotate(0 15 10.5)"><path d="M5.25 0 M5.25 0 C11.54 -1.16, 18.7 -0.64, 24.75 0 M5.25 0 C12.24 0.38, 20.63 -0.51, 24.75 0 M24.75 0 C29.58 0.67, 30.98 0.66, 30 5.25 M24.75 0 C30.27 -0.85, 27.96 3.31, 30 5.25 M30 5.25 C29.23 8.9, 29.31 11.68, 30 15.75 M30 5.25 C30.21 8.14, 30.15 9.75, 30 15.75 M30 15.75 C31.55 18.15, 26.27 21.33, 24.75 21 M30 15.75 C30.34 20.26, 28.25 19.89, 24.75 21 M24.75 21 C19.37 22.63, 17.23 22.41, 5.25 21 M24.75 21 C17.14 21.16, 10.78 20.33, 5.25 21 M5.25 21 C1.05 20.19, 0.86 19.22, 0 15.75 M5.25 21 C-0.34 20.51, -0.58 20.16, 0 15.75 M0 15.75 C0.68 13.87, 0.76 9.73, 0 5.25 M0 15.75 C-0.26 12.62, -0.21 9.18, 0 5.25 M0 5.25 C-0.98 2.95, 3.55 0.31, 5.25 0 M0 5.25 C0.86 -0.02, -0.26 -2.09, 5.25 0" stroke="#000000" stroke-width="1" fill="none"></path></g><g stroke-linecap="round" transform="translate(646 681.5) rotate(0 15 10.5)"><path d="M5.25 0 M5.25 0 C11.33 1.62, 18.83 -1.82, 24.75 0 M5.25 0 C11.94 -0.95, 20.12 -0.88, 24.75 0 M24.75 0 C28.8 -1.29, 28.93 1.9, 30 5.25 M24.75 0 C29.41 1.86, 30.9 -0.18, 30 5.25 M30 5.25 C30.12 9.37, 30.4 13.18, 30 15.75 M30 5.25 C29.92 7.58, 30.35 10.77, 30 15.75 M30 15.75 C31.44 20.78, 27.64 19.28, 24.75 21 M30 15.75 C29.37 20.02, 29.94 19.82, 24.75 21 M24.75 21 C19.55 19.31, 14 20.59, 5.25 21 M24.75 21 C17.29 21.9, 12.33 21.98, 5.25 21 M5.25 21 C0.82 21.62, -1.46 19.2, 0 15.75 M5.25 21 C0.28 22.51, -1.27 20.93, 0 15.75 M0 15.75 C0.1 13.51, -0.87 9.56, 0 5.25 M0 15.75 C0.24 13.11, -0.5 11.47, 0 5.25 M0 5.25 C-0.3 1.17, 2.51 -1.88, 5.25 0 M0 5.25 C0.64 3.83, 3.27 -0.94, 5.25 0" stroke="#000000" stroke-width="1" fill="none"></path></g><g stroke-linecap="round" transform="translate(75 720) rotate(0 304 10.5)"><path d="M5.25 0 M5.25 0 C145.33 -0.41, 285.81 -1.37, 602.75 0 M5.25 0 C188.96 1.66, 373.21 1.26, 602.75 0 M602.75 0 C605.31 -0.31, 608.28 3.5, 608 5.25 M602.75 0 C605.38 0.55, 608.18 1.62, 608 5.25 M608 5.25 C608.85 8.67, 607.34 11.92, 608 15.75 M608 5.25 C608.1 9.09, 607.63 12.07, 608 15.75 M608 15.75 C608.76 18.71, 608.13 22.39, 602.75 21 M608 15.75 C608.98 17.33, 607.21 19.77, 602.75 21 M602.75 21 C413.96 18.96, 222.86 19.22, 5.25 21 M602.75 21 C435.98 22.82, 269.99 23.02, 5.25 21 M5.25 21 C0 19.62, -0.79 17.34, 0 15.75 M5.25 21 C1.21 21.05, 0.87 20.79, 0 15.75 M0 15.75 C-0.41 12.35, 0.74 9.87, 0 5.25 M0 15.75 C-0.01 11.99, -0.08 8.57, 0 5.25 M0 5.25 C-1.28 3.67, 3.59 -0.94, 5.25 0 M0 5.25 C-1.1 2.29, 1.37 0.93, 5.25 0" stroke="#000000" stroke-width="1" fill="none"></path></g><g stroke-linecap="round"><g transform="translate(78 716) rotate(0 300.58905301501045 1.289748698426422)"><path d="M-0.99 0.66 C99.12 1.16, 499.64 2.26, 599.99 2.61 M0.69 -0.03 C101.23 0.14, 502.22 0.67, 602.17 0.81" stroke="#a61e4d" stroke-width="1" fill="none"></path></g></g><mask></mask><g stroke-linecap="round"><g transform="translate(85 92) rotate(0 294.1511234213039 0.5468481164053145)"><path d="M0.05 -1.1 C98.26 -0.92, 491.57 0.71, 589.69 1.12 M-1.38 0.94 C96.69 1.23, 490.89 1.96, 589.1 2.19" stroke="#a61e4d" stroke-width="1" fill="none"></path></g></g><mask></mask><g transform="translate(691 77) rotate(0 52.53333282470703 12.5)"><text x="0" y="0" font-family="Virgil, Segoe UI Emoji" font-size="20px" fill="#a61e4d" text-anchor="start" style="white-space: pre;" direction="ltr" dominant-baseline="text-before-edge">barre deco</text></g><g transform="translate(699.466667175293 703.5) rotate(0 52.53333282470703 12.5)"><text x="0" y="0" font-family="Virgil, Segoe UI Emoji" font-size="20px" fill="#a61e4d" text-anchor="start" style="white-space: pre;" direction="ltr" dominant-baseline="text-before-edge">barre deco</text></g><g stroke-linecap="round" transform="translate(308.5 483.5) rotate(0 62.5 17.5)"><path d="M8.75 0 M8.75 0 C44.87 1.27, 81.44 -0.81, 116.25 0 M8.75 0 C34.06 0.81, 57.63 -0.74, 116.25 0 M116.25 0 C123.74 -0.97, 123.81 2.82, 125 8.75 M116.25 0 C119.98 1.17, 123.08 3.34, 125 8.75 M125 8.75 C126.39 14.44, 124.29 19.62, 125 26.25 M125 8.75 C124.77 15.51, 124.48 20.04, 125 26.25 M125 26.25 C125.98 32.91, 120.73 36.42, 116.25 35 M125 26.25 C124.07 30.75, 120.99 34.76, 116.25 35 M116.25 35 C79.82 34.2, 43.43 35.08, 8.75 35 M116.25 35 C82.41 35.64, 48.5 34.53, 8.75 35 M8.75 35 C3.93 33.3, 0.58 30.53, 0 26.25 M8.75 35 C2.19 34.79, 1.32 31.41, 0 26.25 M0 26.25 C1.7 23.17, -0.31 18.45, 0 8.75 M0 26.25 C-0.77 22, -0.12 17.92, 0 8.75 M0 8.75 C1.83 4.73, 1.4 -0.62, 8.75 0 M0 8.75 C0.27 4.73, 4.75 -0.85, 8.75 0" stroke="#000000" stroke-width="1" fill="none"></path></g><g transform="translate(354.28333282470703 488.5) rotate(0 16.71666717529297 12.5)"><text x="16.71666717529297" y="0" font-family="Virgil, Segoe UI Emoji" font-size="20px" fill="#000000" text-anchor="middle" style="white-space: pre;" direction="ltr" dominant-baseline="text-before-edge">h2?</text></g><g stroke-linecap="round" transform="translate(162 236) rotate(0 219.5 99)"><path d="M32 0 M32 0 C161.25 0.71, 289.91 0.1, 407 0 M32 0 C143.19 1.56, 254.55 1.89, 407 0 M407 0 C426.68 -1.11, 439.2 12.43, 439 32 M407 0 C426.52 -0.02, 437.6 10.64, 439 32 M439 32 C439.67 68.36, 439.85 106.38, 439 166 M439 32 C439.44 68.44, 439.67 105.3, 439 166 M439 166 C437.12 188.81, 428.44 199.73, 407 198 M439 166 C440.35 186.99, 427.41 198.39, 407 198 M407 198 C277.15 198.54, 146.37 200.2, 32 198 M407 198 C317.65 195.87, 227.96 196.56, 32 198 M32 198 C9.23 196.72, 0.39 187.77, 0 166 M32 198 C11.21 199.57, -2.03 185.56, 0 166 M0 166 C0.38 123.41, 1.68 82.26, 0 32 M0 166 C-1.51 134.82, -0.57 103.23, 0 32 M0 32 C-1.17 9.41, 8.97 -0.18, 32 0 M0 32 C1.69 10.47, 11.51 -0.74, 32 0" stroke="#000000" stroke-width="1" fill="none"></path></g></svg>