<svg viewBox="0 0 1161 194" fill="none" xmlns="http://www.w3.org/2000/svg"><g mask="url(#mask0_1264_6505)"><path d="M298.915 130.509C297.178 128.744 296.309 126.571 296.309 123.991C296.309 121.41 297.178 119.238 298.915 117.472C300.653 115.707 302.791 114.824 305.331 114.824C307.87 114.824 310.009 115.707 311.747 117.472C313.484 119.238 314.353 121.41 314.353 123.991C314.353 126.571 313.484 128.744 311.747 130.509C310.009 132.275 307.87 133.157 305.331 133.157C302.791 133.157 300.653 132.275 298.915 130.509Z" fill="white"></path><path d="M314.822 60.333H333.368L342.39 110.241H343.393L352.816 60.333H375.072L384.496 110.241H385.497L394.52 60.333H413.066L398.528 131.629H373.466L364.445 83.759H363.442L354.42 131.629H329.358L314.822 60.333Z" fill="white"></path><path d="M423.366 124.907C417.752 119.407 414.943 112.821 414.943 105.148C414.943 97.4747 417.752 90.8887 423.366 85.3887C428.979 79.8887 435.862 77.1387 444.016 77.1387C452.171 77.1387 459.053 79.8887 464.667 85.3887C470.281 90.8887 473.086 97.4747 473.086 105.148C473.086 112.821 470.281 119.407 464.667 124.907C459.053 130.407 452.171 133.157 444.016 133.157C435.862 133.157 428.979 130.407 423.366 124.907ZM435.697 95.5737C433.555 97.9507 432.488 101.142 432.488 105.148C432.488 109.154 433.555 112.379 435.697 114.824C437.9 117.201 440.676 118.389 444.016 118.389C447.357 118.389 450.096 117.201 452.237 114.824C454.441 112.379 455.544 109.154 455.544 105.148C455.544 101.142 454.441 97.9507 452.237 95.5737C450.096 93.1287 447.357 91.9067 444.016 91.9067C440.676 91.9067 437.9 93.1287 435.697 95.5737Z" fill="white"></path><path d="M481.523 131.629V78.6674H498.064V86.3054H499.065C499.67 84.6764 500.572 83.2504 501.774 82.0284C504.513 79.1084 507.854 77.6484 511.799 77.6484H517.112V94.4544H508.591C505.584 94.4544 503.142 95.4044 501.272 97.3054C499.468 99.1394 498.566 101.583 498.566 104.639V131.629H481.523Z" fill="white"></path><path d="M524.547 131.629V60.333H541.59V117.879H553.118V131.629H524.547Z" fill="white"></path><path d="M564.743 125.519C560.266 120.358 558.025 113.568 558.025 105.148C558.025 96.728 560.266 89.972 564.743 84.879C569.22 79.719 574.665 77.139 581.081 77.139C585.225 77.139 589.137 78.599 592.811 81.519C594.347 82.808 595.62 84.234 596.621 85.796H597.622V60.333H614.664V131.629H597.622V124.5H596.621C595.686 126.129 594.413 127.589 592.811 128.879C589.203 131.731 585.294 133.157 581.081 133.157C574.665 133.157 569.22 130.611 564.743 125.519ZM578.577 95.37C576.571 97.679 575.57 100.938 575.57 105.148C575.57 109.358 576.571 112.617 578.577 114.926C580.583 117.234 583.256 118.389 586.596 118.389C589.936 118.389 592.609 117.234 594.615 114.926C596.621 112.617 597.622 109.358 597.622 105.148C597.622 100.938 596.621 97.679 594.615 95.37C592.609 93.062 589.936 91.907 586.596 91.907C583.256 91.907 580.583 93.062 578.577 95.37Z" fill="white"></path><path d="M107.895 124.907C102.348 119.407 99.5742 112.821 99.5742 105.148C99.5742 97.4747 102.348 90.8887 107.895 85.3887C113.442 79.8887 120.192 77.1387 128.144 77.1387C136.231 77.1387 143.015 79.8887 148.495 85.3887C153.975 90.8887 156.715 97.4747 156.715 105.148V108.204H117.117C117.652 111.802 118.855 114.586 120.726 116.555C122.665 118.457 125.137 119.407 128.144 119.407C131.687 119.407 134.36 118.491 136.165 116.657C136.966 115.91 137.635 114.96 138.17 113.805H156.214C155.011 117.54 153.207 120.765 150.8 123.481C145.521 129.932 137.969 133.157 128.144 133.157C120.192 133.157 113.442 130.407 107.895 124.907ZM117.619 99.5457H138.671C138.069 97.1017 136.833 95.0647 134.962 93.4347C133.09 91.7377 130.818 90.8887 128.144 90.8887C125.471 90.8887 123.199 91.7377 121.328 93.4347C119.457 95.0647 118.22 97.1017 117.619 99.5457Z" fill="white"></path><path d="M165.664 131.629V60.333H182.706V85.796H183.709C184.644 84.234 185.914 82.808 187.518 81.519C191.194 78.599 195.103 77.139 199.247 77.139C205.663 77.139 211.109 79.719 215.587 84.879C220.065 89.972 222.304 96.728 222.304 105.148C222.304 113.568 220.065 120.358 215.587 125.519C211.109 130.611 205.663 133.157 199.247 133.157C195.037 133.157 191.127 131.731 187.518 128.879C185.914 127.589 184.644 126.129 183.709 124.5H182.706V131.629H165.664ZM185.714 95.37C183.709 97.679 182.706 100.938 182.706 105.148C182.706 109.358 183.709 112.617 185.714 114.926C187.719 117.234 190.392 118.389 193.733 118.389C197.075 118.389 199.748 117.234 201.753 114.926C203.758 112.617 204.761 109.358 204.761 105.148C204.761 100.938 203.758 97.679 201.753 95.37C199.748 93.062 197.075 91.907 193.733 91.907C190.392 91.907 187.719 93.062 185.714 95.37Z" fill="white"></path><path d="M228.197 109.222H247.244C247.645 110.784 248.38 112.142 249.45 113.296C251.722 116.012 254.997 117.37 259.274 117.37C262.682 117.37 265.356 116.555 267.294 114.926C269.299 113.228 270.301 111.157 270.301 108.713C270.301 106.336 269.299 104.299 267.294 102.602C265.356 100.904 262.682 100.055 259.274 100.055H243.234V87.833L259.274 77.648V76.629H232.207V60.333H284.837V76.629L269.299 86.305L268.196 86.713V87.935L268.396 87.833C274.344 87.833 279.323 89.836 283.333 93.843C287.343 97.849 289.348 102.805 289.348 108.713C289.348 115.843 286.641 121.784 281.228 126.537C275.815 131.29 268.496 133.667 259.274 133.667C247.445 133.667 238.756 129.593 233.21 121.444C230.67 117.846 228.999 113.772 228.197 109.222Z" fill="#09C790"></path><path d="M52.4706 60.333H59.6446L69.0666 110.241H70.0696L66.2226 131.629H58.0406L49.0196 83.759H48.0176L52.4706 60.333Z" fill="#09C790"></path><path d="M52.4706 60.333H59.6446L69.0666 110.241H70.0696L66.2226 131.629H58.0406L49.0196 83.759H48.0176L52.4706 60.333Z" fill="url(#paint0_linear_1264_6505)" fill-opacity="0.5"></path><path d="M59.074 60.333L45.534 131.484L45.578 131.629H20.536L6 60.333H24.546L33.568 110.241H34.57L43.994 60.333H59.074Z" fill="white"></path><path d="M66.0996 131.629L78.9946 60.333H97.5046L82.9706 131.629H66.0996Z" fill="white"></path></g><defs><linearGradient id="paint0_linear_1264_6505" x1="50.2226" y1="71.818" x2="71.5736" y2="74.967" gradientUnits="userSpaceOnUse"><stop stop-color="#05382A"></stop><stop offset="1" stop-color="#09C790"></stop></linearGradient></defs></svg>