<svg viewBox="0 0 1161 194" fill="none" xmlns="http://www.w3.org/2000/svg"><path d="M78.9904 51.203C76.5024 50.795 73.9544 51.027 71.5784 51.877C69.2034 52.727 67.0774 54.167 65.3974 56.066C62.1904 59.7 61.1924 64.431 61.9634 69.171C62.6604 73.447 63.5854 77.786 63.7944 81.905C64.0854 88.108 63.1514 94.308 61.0474 100.143C59.1434 105.422 56.4314 109.516 50.6184 110.422C50.1874 110.491 48.6174 110.54 48.1714 110.564C47.7264 110.589 46.3164 110.496 45.8804 110.427C40.0674 109.521 37.3304 105.427 35.4314 100.113C33.3274 94.278 32.3934 88.079 32.6854 81.875C32.8934 77.771 33.8184 73.427 34.5164 69.142C35.2864 64.401 34.2884 59.67 31.0814 56.036C29.3964 54.139 27.2654 52.702 24.8854 51.857C22.5054 51.013 19.9534 50.787 17.4644 51.203C10.0094 52.432 5.0444 59.122 5.0004 66.14C4.9804 68.844 5.7064 71.5 7.0984 73.809C9.4184 77.678 13.2264 80.499 16.5494 83.428C18.7484 85.387 22.5514 90.945 24.4164 96.969C25.5444 100.618 26.4654 104.315 27.3754 108.047C28.6544 113.248 30.4134 124.738 31.5704 129.953C33.8814 140.394 40.9544 142.76 48.0414 143H48.2934C55.3804 142.76 62.5684 140.389 64.8794 129.948C66.0324 124.733 67.7854 113.238 69.0744 108.042C69.9904 104.33 70.9054 100.613 72.0344 96.964C73.8994 90.94 77.7014 85.362 79.9014 83.423C83.2234 80.484 87.0264 77.673 89.3514 73.805C90.7434 71.495 91.4704 68.839 91.4494 66.135C91.4104 59.102 86.4644 52.407 78.9904 51.203Z" fill="url(#paint0_linear_1264_6499)"></path><path d="M190.236 65.3669L166.684 129.583H151.044L127.492 65.3669H141.292L158.956 116.427L176.528 65.3669H190.236ZM245.338 102.995C245.338 104.835 245.216 106.491 244.97 107.963H207.71C208.017 111.643 209.305 114.526 211.574 116.611C213.844 118.697 216.634 119.739 219.946 119.739C224.73 119.739 228.134 117.685 230.158 113.575H244.05C242.578 118.482 239.757 122.53 235.586 125.719C231.416 128.847 226.294 130.411 220.222 130.411C215.316 130.411 210.9 129.338 206.974 127.191C203.11 124.983 200.074 121.886 197.866 117.899C195.72 113.913 194.646 109.313 194.646 104.099C194.646 98.8249 195.72 94.1939 197.866 90.2069C200.013 86.2209 203.018 83.1539 206.882 81.0069C210.746 78.8609 215.193 77.7869 220.222 77.7869C225.068 77.7869 229.392 78.8299 233.194 80.9149C237.058 83.0009 240.033 85.9749 242.118 89.8389C244.265 93.6419 245.338 98.0269 245.338 102.995ZM231.998 99.3149C231.937 96.0029 230.741 93.3659 228.41 91.4029C226.08 89.3789 223.228 88.3669 219.854 88.3669C216.665 88.3669 213.966 89.3489 211.758 91.3109C209.612 93.2129 208.293 95.8809 207.802 99.3149H231.998ZM282.984 77.8789C289.056 77.8789 293.962 79.8109 297.704 83.6749C301.445 87.4779 303.316 92.8139 303.316 99.6829V129.583H290.436V101.431C290.436 97.3829 289.424 94.2859 287.4 92.1389C285.376 89.9309 282.616 88.8269 279.12 88.8269C275.562 88.8269 272.741 89.9309 270.656 92.1389C268.632 94.2859 267.62 97.3829 267.62 101.431V129.583H254.74V78.6149H267.62V84.9629C269.337 82.7549 271.514 81.0379 274.152 79.8109C276.85 78.5229 279.794 77.8789 282.984 77.8789ZM338.196 130.411C333.289 130.411 328.873 129.338 324.948 127.191C321.023 124.983 317.925 121.886 315.656 117.899C313.448 113.913 312.344 109.313 312.344 104.099C312.344 98.8859 313.479 94.2859 315.748 90.2989C318.079 86.3129 321.237 83.2459 325.224 81.0989C329.211 78.8909 333.657 77.7869 338.564 77.7869C343.471 77.7869 347.917 78.8909 351.904 81.0989C355.891 83.2459 359.019 86.3129 361.288 90.2989C363.619 94.2859 364.784 98.8859 364.784 104.099C364.784 109.313 363.588 113.913 361.196 117.899C358.865 121.886 355.676 124.983 351.628 127.191C347.641 129.338 343.164 130.411 338.196 130.411ZM338.196 119.187C340.527 119.187 342.704 118.635 344.728 117.531C346.813 116.366 348.469 114.649 349.696 112.379C350.923 110.11 351.536 107.35 351.536 104.099C351.536 99.2539 350.248 95.5429 347.672 92.9669C345.157 90.3299 342.06 89.0109 338.38 89.0109C334.7 89.0109 331.603 90.3299 329.088 92.9669C326.635 95.5429 325.408 99.2539 325.408 104.099C325.408 108.945 326.604 112.686 328.996 115.323C331.449 117.899 334.516 119.187 338.196 119.187ZM437.528 77.8789C443.784 77.8789 448.813 79.8109 452.616 83.6749C456.48 87.4779 458.412 92.8139 458.412 99.6829V129.583H445.532V101.431C445.532 97.4449 444.52 94.4089 442.496 92.3229C440.472 90.1769 437.712 89.1029 434.216 89.1029C430.72 89.1029 427.929 90.1769 425.844 92.3229C423.82 94.4089 422.808 97.4449 422.808 101.431V129.583H409.928V101.431C409.928 97.4449 408.916 94.4089 406.892 92.3229C404.868 90.1769 402.108 89.1029 398.612 89.1029C395.054 89.1029 392.233 90.1769 390.148 92.3229C388.124 94.4089 387.112 97.4449 387.112 101.431V129.583H374.232V78.6149H387.112V84.7789C388.768 82.6329 390.884 80.9459 393.46 79.7189C396.097 78.4929 398.98 77.8789 402.108 77.8789C406.094 77.8789 409.652 78.7379 412.78 80.4549C415.908 82.1109 418.33 84.5029 420.048 87.6309C421.704 84.6869 424.096 82.3259 427.224 80.5469C430.413 78.7689 433.848 77.8789 437.528 77.8789ZM578.391 65.3669L560.451 129.583H545.271L533.219 83.8589L520.615 129.583L505.527 129.675L488.231 65.3669H502.031L513.347 115.231L526.411 65.3669H540.763L553.091 114.955L564.499 65.3669H578.391ZM583.489 103.915C583.489 98.7629 584.501 94.1939 586.525 90.2069C588.611 86.2209 591.401 83.1539 594.897 81.0069C598.455 78.8609 602.411 77.7869 606.765 77.7869C610.568 77.7869 613.88 78.5539 616.701 80.0869C619.584 81.6209 621.884 83.5529 623.601 85.8829V78.6149H636.573V129.583H623.601V122.131C621.945 124.523 619.645 126.517 616.701 128.111C613.819 129.645 610.476 130.411 606.673 130.411C602.38 130.411 598.455 129.307 594.897 127.099C591.401 124.891 588.611 121.794 586.525 117.807C584.501 113.759 583.489 109.129 583.489 103.915ZM623.601 104.099C623.601 100.971 622.988 98.3029 621.761 96.0949C620.535 93.8259 618.879 92.1089 616.793 90.9429C614.708 89.7169 612.469 89.1029 610.077 89.1029C607.685 89.1029 605.477 89.6859 603.453 90.8509C601.429 92.0169 599.773 93.7339 598.485 96.0029C597.259 98.2109 596.645 100.849 596.645 103.915C596.645 106.982 597.259 109.681 598.485 112.011C599.773 114.281 601.429 116.029 603.453 117.255C605.539 118.482 607.747 119.095 610.077 119.095C612.469 119.095 614.708 118.513 616.793 117.347C618.879 116.121 620.535 114.403 621.761 112.195C622.988 109.926 623.601 107.227 623.601 104.099ZM662.034 61.5029V129.583H649.154V61.5029H662.034ZM687.637 61.5029V129.583H674.757V61.5029H687.637ZM747.744 102.995C747.744 104.835 747.621 106.491 747.376 107.963H710.116C710.423 111.643 711.711 114.526 713.98 116.611C716.249 118.697 719.04 119.739 722.352 119.739C727.136 119.739 730.54 117.685 732.564 113.575H746.456C744.984 118.482 742.163 122.53 737.992 125.719C733.821 128.847 728.7 130.411 722.628 130.411C717.721 130.411 713.305 129.338 709.38 127.191C705.516 124.983 702.48 121.886 700.272 117.899C698.125 113.913 697.052 109.313 697.052 104.099C697.052 98.8249 698.125 94.1939 700.272 90.2069C702.419 86.2209 705.424 83.1539 709.288 81.0069C713.152 78.8609 717.599 77.7869 722.628 77.7869C727.473 77.7869 731.797 78.8299 735.6 80.9149C739.464 83.0009 742.439 85.9749 744.524 89.8389C746.671 93.6419 747.744 98.0269 747.744 102.995ZM734.404 99.3149C734.343 96.0029 733.147 93.3659 730.816 91.4029C728.485 89.3789 725.633 88.3669 722.26 88.3669C719.071 88.3669 716.372 89.3489 714.164 91.3109C712.017 93.2129 710.699 95.8809 710.208 99.3149H734.404ZM772.143 89.1949V113.851C772.143 115.569 772.542 116.826 773.339 117.623C774.198 118.359 775.608 118.727 777.571 118.727H783.551V129.583H775.455C764.599 129.583 759.171 124.309 759.171 113.759V89.1949H753.099V78.6149H759.171V66.0109H772.143V78.6149H783.551V89.1949H772.143Z" fill="white"></path><defs><linearGradient id="paint0_linear_1264_6499" x1="13.4704" y1="61.867" x2="179.59" y2="170.962" gradientUnits="userSpaceOnUse"><stop stop-color="#11A97D"></stop><stop offset="1" stop-color="#6610F2"></stop></linearGradient></defs></svg>