<svg viewBox="0 0 1161 194" fill="none" xmlns="http://www.w3.org/2000/svg"><g mask="url(#mask0_1264_6497)"><path d="M89.734 132.791C91.123 134.179 91.123 136.4 89.734 137.788C89.087 138.436 88.161 138.806 87.236 138.806C86.31 138.806 85.385 138.436 84.737 137.788L75.945 128.904C68.357 135.29 58.917 138.806 48.923 138.806C37.725 138.806 27.175 134.457 19.309 126.498C11.35 118.539 7 108.082 7 96.8839C7 85.6859 11.35 75.1359 19.309 67.2699C27.267 59.3109 37.725 54.9619 48.923 54.9619C58.825 54.9619 68.172 58.3859 75.668 64.5859C76.871 65.4189 77.796 66.5299 78.537 67.7329C79.555 69.3989 80.11 71.3419 80.11 73.2849C80.11 73.6559 80.11 74.1179 80.017 74.4879C80.017 74.7659 79.925 75.0429 79.925 75.3209C79.925 75.4139 79.925 75.4139 79.925 75.5059C79.925 75.5989 79.832 75.7839 79.832 75.8769C79.74 76.0619 79.74 76.3389 79.647 76.5239C79.369 77.3569 78.999 78.0979 78.629 78.8379C78.537 79.0229 78.444 79.1159 78.351 79.3009C78.259 79.4859 78.074 79.6709 77.981 79.8559C76.316 82.0769 74.002 83.8349 71.873 85.6859C70.3 87.0749 67.524 91.0539 66.228 95.3109C65.395 97.9019 64.748 100.586 64.1 103.177C63.174 106.879 61.879 115.115 61.046 118.817C59.38 126.221 54.198 127.979 49.108 128.164H48.923C48.923 128.164 48.923 128.164 48.83 128.164C43.74 127.979 38.65 126.313 36.984 118.909C36.152 115.208 34.856 106.971 33.931 103.269C33.283 100.586 32.635 97.9949 31.802 95.4029C30.414 91.1459 27.73 87.1669 26.157 85.7789C24.676 84.4829 23.103 83.1879 21.622 81.7989C25.139 75.4139 30.877 70.4159 37.725 67.8249C39.113 70.1389 39.483 72.9149 39.113 75.5989C38.65 78.6529 37.91 81.7069 37.817 84.6679C37.632 89.1099 38.28 93.5529 39.761 97.7169C41.149 101.511 43.092 104.38 47.257 105.028C47.534 105.12 48.552 105.12 48.923 105.12C49.2 105.12 50.403 105.028 50.681 105.028C54.846 104.38 56.881 101.419 58.177 97.6239C59.658 93.4599 60.398 89.0179 60.12 84.5759C59.935 81.6139 59.288 78.5599 58.825 75.5059C58.362 72.7299 58.732 70.0459 60.12 67.7329C60.491 67.1769 60.861 66.7149 61.231 66.1589C61.694 65.6969 62.064 65.2339 62.619 64.8639C58.362 63.0129 53.735 62.0879 48.923 62.0879C29.674 62.0879 14.126 77.6349 14.126 96.8839C14.126 116.133 29.674 131.681 48.923 131.681C68.172 131.681 83.719 116.133 83.719 96.8839C83.719 91.6089 82.609 86.7039 80.48 82.2619C80.85 81.7989 81.22 81.2439 81.591 80.6889C82.979 78.4679 83.627 75.9689 83.627 73.3779C88.346 80.2259 90.845 88.3699 90.845 96.8839C90.845 106.879 87.328 116.318 80.943 123.907L89.734 132.791Z" fill="white"></path><path d="M180.875 68.0548L159.41 126.579H145.157L123.693 68.0548H136.269L152.368 114.589L168.382 68.0548H180.875ZM231.092 102.348C231.092 104.025 230.981 105.534 230.757 106.876H196.8C197.079 110.229 198.253 112.856 200.321 114.757C202.39 116.657 204.933 117.608 207.951 117.608C212.311 117.608 215.414 115.735 217.258 111.99H229.919C228.577 116.462 226.006 120.151 222.205 123.058C218.404 125.908 213.737 127.334 208.203 127.334C203.731 127.334 199.707 126.355 196.129 124.399C192.608 122.387 189.841 119.564 187.829 115.931C185.872 112.298 184.894 108.105 184.894 103.354C184.894 98.5468 185.872 94.3268 187.829 90.6938C189.785 87.0598 192.524 84.2648 196.045 82.3088C199.567 80.3528 203.619 79.3738 208.203 79.3738C212.619 79.3738 216.559 80.3248 220.025 82.2248C223.546 84.1258 226.257 86.8368 228.158 90.3578C230.114 93.8238 231.092 97.8198 231.092 102.348ZM218.935 98.9938C218.879 95.9758 217.789 93.5718 215.665 91.7838C213.541 89.9388 210.942 89.0168 207.867 89.0168C204.961 89.0168 202.501 89.9108 200.489 91.6998C198.533 93.4318 197.331 95.8638 196.884 98.9938H218.935ZM265.401 79.4578C270.934 79.4578 275.406 81.2188 278.816 84.7408C282.226 88.2058 283.93 93.0688 283.93 99.3298V126.579H272.192V100.923C272.192 97.2328 271.27 94.4108 269.425 92.4538C267.581 90.4418 265.065 89.4358 261.879 89.4358C258.637 89.4358 256.066 90.4418 254.165 92.4538C252.321 94.4108 251.399 97.2328 251.399 100.923V126.579H239.66V80.1288H251.399V85.9138C252.964 83.9018 254.948 82.3368 257.352 81.2188C259.811 80.0448 262.494 79.4578 265.401 79.4578ZM315.719 127.334C311.247 127.334 307.222 126.355 303.645 124.399C300.068 122.387 297.245 119.564 295.177 115.931C293.164 112.298 292.158 108.105 292.158 103.354C292.158 98.6028 293.192 94.4108 295.261 90.7768C297.385 87.1438 300.263 84.3488 303.897 82.3928C307.53 80.3808 311.582 79.3738 316.054 79.3738C320.526 79.3738 324.578 80.3808 328.212 82.3928C331.845 84.3488 334.696 87.1438 336.764 90.7768C338.888 94.4108 339.95 98.6028 339.95 103.354C339.95 108.105 338.86 112.298 336.68 115.931C334.556 119.564 331.649 122.387 327.96 124.399C324.327 126.355 320.246 127.334 315.719 127.334ZM315.719 117.105C317.843 117.105 319.827 116.602 321.672 115.595C323.572 114.533 325.081 112.968 326.199 110.9C327.317 108.832 327.876 106.317 327.876 103.354C327.876 98.9378 326.702 95.5568 324.355 93.2088C322.063 90.8048 319.24 89.6038 315.886 89.6038C312.533 89.6038 309.71 90.8048 307.418 93.2088C305.182 95.5568 304.064 98.9378 304.064 103.354C304.064 107.77 305.154 111.18 307.334 113.583C309.57 115.931 312.365 117.105 315.719 117.105ZM406.244 79.4578C411.946 79.4578 416.529 81.2188 419.995 84.7408C423.516 88.2058 425.277 93.0688 425.277 99.3298V126.579H413.539V100.923C413.539 97.2888 412.617 94.5218 410.772 92.6218C408.928 90.6658 406.412 89.6868 403.226 89.6868C400.04 89.6868 397.497 90.6658 395.596 92.6218C393.752 94.5218 392.829 97.2888 392.829 100.923V126.579H381.091V100.923C381.091 97.2888 380.169 94.5218 378.324 92.6218C376.48 90.6658 373.964 89.6868 370.778 89.6868C367.536 89.6868 364.965 90.6658 363.064 92.6218C361.22 94.5218 360.298 97.2888 360.298 100.923V126.579H348.56V80.1288H360.298V85.7468C361.807 83.7898 363.735 82.2528 366.083 81.1348C368.486 80.0168 371.114 79.4578 373.964 79.4578C377.598 79.4578 380.839 80.2408 383.69 81.8058C386.541 83.3148 388.749 85.4948 390.314 88.3458C391.823 85.6628 394.003 83.5108 396.854 81.8898C399.76 80.2688 402.891 79.4578 406.244 79.4578ZM476.601 127.166C472.52 127.166 468.831 126.467 465.533 125.07C462.291 123.672 459.72 121.66 457.819 119.033C455.919 116.406 454.941 113.304 454.885 109.726H467.462C467.629 112.13 468.468 114.03 469.977 115.428C471.542 116.825 473.666 117.524 476.349 117.524C479.088 117.524 481.24 116.881 482.805 115.595C484.37 114.254 485.153 112.521 485.153 110.397C485.153 108.664 484.622 107.239 483.56 106.121C482.498 105.003 481.156 104.137 479.535 103.522C477.97 102.851 475.79 102.124 472.995 101.342C469.194 100.224 466.092 99.1338 463.689 98.0718C461.341 96.9538 459.301 95.3048 457.568 93.1248C455.891 90.8888 455.053 87.9268 455.053 84.2368C455.053 80.7718 455.919 77.7528 457.652 75.1818C459.385 72.6108 461.816 70.6548 464.946 69.3128C468.076 67.9158 471.654 67.2168 475.678 67.2168C481.715 67.2168 486.606 68.6978 490.351 71.6608C494.152 74.5668 496.248 78.6478 496.64 83.9018H483.727C483.616 81.8898 482.749 80.2408 481.128 78.9548C479.563 77.6138 477.467 76.9428 474.84 76.9428C472.548 76.9428 470.704 77.5298 469.306 78.7038C467.965 79.8778 467.294 81.5818 467.294 83.8178C467.294 85.3828 467.797 86.6968 468.803 87.7588C469.865 88.7648 471.151 89.6038 472.66 90.2738C474.225 90.8888 476.405 91.6158 479.2 92.4538C483.001 93.5718 486.103 94.6898 488.507 95.8078C490.91 96.9258 492.978 98.6028 494.711 100.839C496.444 103.075 497.31 106.009 497.31 109.642C497.31 112.773 496.5 115.679 494.879 118.362C493.258 121.045 490.882 123.197 487.752 124.818C484.622 126.383 480.905 127.166 476.601 127.166ZM504.469 103.354C504.469 98.5468 505.447 94.3548 507.403 90.7768C509.359 87.1438 512.07 84.3488 515.536 82.3928C519.002 80.3808 522.97 79.3738 527.442 79.3738C533.199 79.3738 537.951 80.8278 541.696 83.7338C545.497 86.5848 548.04 90.6098 549.325 95.8078H536.665C535.994 93.7958 534.848 92.2308 533.227 91.1128C531.662 89.9388 529.706 89.3518 527.358 89.3518C524.004 89.3518 521.349 90.5818 519.393 93.0408C517.437 95.4448 516.458 98.8818 516.458 103.354C516.458 107.77 517.437 111.208 519.393 113.667C521.349 116.071 524.004 117.272 527.358 117.272C532.109 117.272 535.212 115.148 536.665 110.9H549.325C548.04 115.931 545.497 119.927 541.696 122.89C537.895 125.852 533.143 127.334 527.442 127.334C522.97 127.334 519.002 126.355 515.536 124.399C512.07 122.387 509.359 119.592 507.403 116.015C505.447 112.381 504.469 108.161 504.469 103.354ZM554.908 103.186C554.908 98.4908 555.83 94.3268 557.675 90.6938C559.575 87.0598 562.119 84.2648 565.305 82.3088C568.547 80.3528 572.152 79.3738 576.121 79.3738C579.586 79.3738 582.605 80.0728 585.176 81.4708C587.803 82.8678 589.899 84.6288 591.464 86.7528V80.1288H603.287V126.579H591.464V119.788C589.955 121.968 587.859 123.784 585.176 125.238C582.549 126.635 579.503 127.334 576.037 127.334C572.124 127.334 568.547 126.328 565.305 124.315C562.119 122.303 559.575 119.48 557.675 115.847C555.83 112.158 554.908 107.938 554.908 103.186ZM591.464 103.354C591.464 100.503 590.905 98.0718 589.788 96.0598C588.67 93.9908 587.16 92.4258 585.26 91.3638C583.359 90.2458 581.319 89.6868 579.139 89.6868C576.959 89.6868 574.947 90.2178 573.102 91.2798C571.258 92.3418 569.749 93.9078 568.575 95.9758C567.457 97.9878 566.898 100.392 566.898 103.186C566.898 105.981 567.457 108.441 568.575 110.565C569.749 112.633 571.258 114.226 573.102 115.344C575.003 116.462 577.015 117.021 579.139 117.021C581.319 117.021 583.359 116.49 585.26 115.428C587.16 114.31 588.67 112.745 589.788 110.732C590.905 108.664 591.464 106.205 591.464 103.354ZM640.493 79.4578C646.026 79.4578 650.498 81.2188 653.908 84.7408C657.317 88.2058 659.022 93.0688 659.022 99.3298V126.579H647.284V100.923C647.284 97.2328 646.362 94.4108 644.517 92.4538C642.673 90.4418 640.157 89.4358 636.971 89.4358C633.729 89.4358 631.158 90.4418 629.257 92.4538C627.413 94.4108 626.491 97.2328 626.491 100.923V126.579H614.752V80.1288H626.491V85.9138C628.056 83.9018 630.04 82.3368 632.444 81.2188C634.903 80.0448 637.586 79.4578 640.493 79.4578Z" fill="white"></path></g></svg>